<?xml version="1.0" encoding="UTF-8"?>
<svg width="128px" height="45px" viewBox="0 0 128 45" version="1.1" xmlns="http://www.w3.org/2000/svg" xmlns:xlink="http://www.w3.org/1999/xlink">
    <title>Group 2</title>
    <g id="Page-1" stroke="none" stroke-width="1" fill="none" fill-rule="evenodd">
        <g id="Group-2" fill-rule="nonzero">
            <g id="Group">
                <g id="SvgjsG19084" fill="#3D4147">
                    <path d="M22.0970699,24.6047428 L8.35202428,24.6047428 L4.7725853,34.5130112 L0,34.5130112 L12.8859803,0.474079824 L18.1358241,0.474079824 L30.5445459,34.5130112 L25.4856055,34.5130112 L22.0970699,24.6047428 Z M9.78379987,20.5276564 L20.4266651,20.5276564 L15.3677247,5.54673394 L15.272273,5.54673394 L9.78379987,20.5276564 Z M42.6752646,13.1794191 L38.4753895,13.1794191 L38.4753895,34.5130112 L34.2755145,34.5130112 L34.2755145,13.1794191 L30.8392531,13.1794191 L30.8392531,9.71863638 L34.2755145,9.71863638 L34.2755145,5.45191797 C34.2755145,1.70668736 36.6618071,0 40.7662305,0 C41.3866666,0 42.0071027,0.0474079824 42.6752646,0.0948159647 L42.6752646,3.84004657 C42.1502802,3.79263859 41.4821183,3.74523061 40.9571339,3.74523061 C39.1435515,3.74523061 38.4753895,4.64598227 38.4753895,6.63711753 L38.4753895,9.71863638 L42.6752646,9.71863638 L42.6752646,13.1794191 L42.6752646,13.1794191 Z M50.3197531,20.1009845 L50.3197531,34.5130112 L46.119878,34.5130112 L46.119878,9.71863638 L50.0811238,9.71863638 L50.0811238,13.8431308 L50.1765756,13.8431308 C51.8469804,10.9512439 54.0423696,9.00751665 57.1922759,9.00751665 C57.7172603,9.00751665 57.9558896,9.05492463 58.2899706,9.14974059 L58.2899706,13.463867 L56.7150174,13.463867 C52.8014975,13.463867 50.3197531,16.4979779 50.3197531,20.1009845 Z M64.7413127,9.71863638 L64.7413127,34.5130112 L60.5414377,34.5130112 L60.5414377,9.71863638 L64.7413127,9.71863638 Z M64.7413127,5.21487806 L60.5414377,5.21487806 L60.5414377,0.474079824 L64.7413127,0.474079824 L64.7413127,5.21487806 Z" id="Shape"></path>
                </g>
                <g id="SvgjsG19085" transform="translate(63.258687, 1.144981)" fill="#28A0F0">
                    <path d="M9.29518848,42.8550186 C9.23018716,42.8550186 9.23018716,42.7906717 9.16518584,42.7263248 L9.23018716,42.7263248 C9.23018716,42.661978 9.10018452,42.661978 8.90518057,42.661978 C8.77517793,42.661978 8.6451753,42.661978 8.6451753,42.5976311 L8.32016871,42.4689373 C8.12516475,42.4045905 7.99516212,42.3402436 7.99516212,42.2758967 C7.99516212,42.147203 7.99516212,42.147203 7.9301608,42.147203 L7.34514894,42.4689373 L7.41015025,42.2115498 C7.41015025,42.147203 7.41015025,42.0828561 7.34514894,42.0828561 L7.28014762,42.2115498 L7.2151463,42.0828561 C7.2151463,41.9541623 7.15014498,41.9541623 7.02014235,41.9541623 L6.89013971,42.0185092 L6.89013971,41.9541623 L7.02014235,41.6967748 L6.82513839,41.7611217 C6.63013444,41.7611217 6.5001318,41.7611217 6.43513048,41.6967748 C6.37012917,41.5680811 6.24012653,41.5680811 6.11012389,41.5680811 C6.04512258,41.5680811 5.91511994,41.5037342 5.91511994,41.4393873 C5.85011862,41.3750405 5.7851173,41.3106936 5.72011599,41.3106936 L5.65511467,41.3106936 C5.52511203,41.3106936 5.3951094,41.1819998 5.3951094,40.9889592 L5.46011071,40.7959186 C5.65511467,40.4098373 5.7851173,39.8307155 5.85011862,39.1872467 C5.85011862,38.6081249 5.91511994,38.4150842 5.98012126,38.2863905 L6.04512258,38.2220436 L5.98012126,38.1576967 C5.91511994,38.0933499 5.91511994,37.9646561 5.91511994,37.8359624 L5.91511994,36.6777186 C5.91511994,35.5194749 5.91511994,35.5194749 5.98012126,35.2620874 C5.98012126,35.1333936 5.98012126,35.1333936 5.85011862,35.1333936 L5.7851173,35.1333936 L5.85011862,35.0046999 C5.91511994,34.940353 5.98012126,34.2325374 5.98012126,33.7821092 C5.98012126,33.5890686 5.98012126,33.4603749 5.91511994,33.4603749 L5.98012126,32.2377843 L5.91511994,31.336928 C5.98012126,31.336928 5.98012126,30.3717249 5.98012126,29.4065218 L5.91511994,27.3474218 L5.85011862,27.218728 L5.91511994,27.1543811 C5.98012126,27.1543811 5.98012126,26.6396061 5.98012126,26.0604843 L5.91511994,23.7439968 C5.91511994,22.9718343 5.91511994,22.5214062 5.85011862,22.5214062 C5.7851173,22.5214062 5.7851173,22.585753 5.7851173,22.6500999 L5.72011599,22.7787937 L5.46011071,22.7144468 L4.6800949,22.9074874 C4.61509358,22.9074874 4.61509358,22.9074874 4.61509358,22.8431405 L4.48509094,22.7787937 L4.48509094,22.9074874 C4.48509094,22.9718343 4.42008962,23.0361812 4.29008699,23.0361812 C4.16008435,23.0361812 4.09508303,22.9718343 4.09508303,22.9718343 C4.09508303,22.9074874 3.9650804,22.8431405 3.70507513,22.8431405 L3.44506985,22.8431405 C3.2500659,22.8431405 3.05506195,22.7787937 2.73005536,22.585753 L2.27504613,22.3283655 C2.21004481,22.2640187 2.01504086,22.1996718 1.8200369,22.1353249 C1.56003163,22.0066312 1.49503031,21.9422843 1.49503031,21.8135905 C1.49503031,21.556203 0.910018452,20.9127343 0.455009226,20.7196937 C0.260005272,20.5909999 0.195003954,20.526653 0.195003954,20.3336124 L0.195003954,20.2049187 L0.065001318,19.9475312 C0,19.8188374 0,19.7544906 0,19.6257968 C0,19.5614499 0,19.4327562 0.065001318,19.3684093 L0.32500659,19.1110218 C0.390007908,18.9179812 0.585011862,18.9179812 1.17002372,18.9179812 C2.01504086,18.8536343 2.14504349,18.8536343 2.66505404,18.6605937 L2.92505931,18.5318999 L3.18506458,18.6605937 L3.57507249,18.5318999 L3.83507776,18.4675531 C4.09508303,18.4032062 4.42008962,18.2745124 4.42008962,18.2101656 C4.42008962,18.1458187 4.48509094,18.1458187 4.55009226,18.1458187 L5.26510676,18.0814718 C5.85011862,17.8884312 5.91511994,17.8884312 5.91511994,17.6310437 C5.91511994,17.5023499 5.91511994,16.6014937 5.98012126,15.7006374 C6.04512258,14.0919656 6.04512258,13.2554562 6.17512521,11.4537437 L6.24012653,9.65203121 C6.30512785,9.07290934 6.37012917,8.49378747 6.43513048,8.30074684 L6.63013444,8.04335934 C6.69513576,8.04335934 6.76013707,8.10770622 6.76013707,8.23639997 L6.82513839,8.36509372 C6.89013971,8.36509372 6.95514103,8.30074684 7.02014235,8.23639997 L7.02014235,8.17205309 C7.02014235,8.04335934 6.89013971,7.97901247 6.76013707,7.97901247 L6.63013444,7.97901247 C6.5001318,7.97901247 6.5001318,7.97901247 6.5001318,7.91466559 L6.56513312,7.59293122 C7.02014235,5.8555656 7.47515157,4.63297498 7.73515684,4.50428123 L8.06016343,3.98950623 C8.19016607,3.73211874 8.38517002,3.47473124 8.45017134,3.41038436 C8.58017398,3.34603749 8.6451753,3.21734374 8.6451753,3.08864999 C8.6451753,3.02430311 8.71017661,2.89560936 8.77517793,2.89560936 C8.90518057,2.83126249 9.16518584,2.57387499 9.42519111,2.25214062 C9.7501977,1.93040624 10.0752043,1.54432499 10.2702082,1.41563124 C10.4652122,1.2869375 10.5952148,1.15824375 10.5952148,1.09389687 L10.5302135,1.02955 L10.6602162,1.02955 C10.8552201,1.02955 11.3102293,0.900856247 11.3102293,0.772162497 C11.3102293,0.707815622 11.3752307,0.707815622 11.5052333,0.707815622 C11.5702346,0.707815622 11.5702346,0.643468748 11.5702346,0.643468748 C11.5702346,0.579121873 11.6352359,0.579121873 11.7652386,0.579121873 L11.8952412,0.643468748 C11.9602425,0.643468748 11.9602425,0.579121873 11.9602425,0.450428123 L11.8952412,0.321734374 L11.9602425,0.257387499 L12.0252438,0.321734374 L12.1552465,0.386081249 C12.2202478,0.257387499 12.7402583,0 12.9352623,0 C12.9352623,0 12.9352623,0.0643468748 12.8052596,0.193040624 L12.5452544,0.386081249 L13.1952676,0.257387499 C13.3252702,0.257387499 13.3902715,0.193040624 13.3902715,0.193040624 C13.3902715,0.12869375 13.3252702,0.0643468748 13.2602689,0.0643468748 L13.1952676,0 L13.3252702,0 C13.5202741,0 13.5852755,0.0643468748 13.5852755,0.12869375 C13.5852755,0.193040624 13.6502768,0.193040624 13.7152781,0.193040624 L13.8452807,0.193040624 C14.0402847,0.193040624 14.105286,0.193040624 14.2352886,0.321734374 L14.4952939,0.514774998 C14.6902979,0.514774998 15.2753097,0.836509372 15.3403111,0.965203121 C15.3403111,1.02955 15.4703137,1.02955 15.6003163,1.02955 C15.6653176,1.02955 15.7953203,1.15824375 15.8603216,1.2869375 C15.9903242,1.54432499 16.4453335,1.99475312 16.6403374,2.05909999 C16.77034,2.12344687 16.8353414,2.18779374 16.8353414,2.31648749 C16.8353414,2.38083437 16.9003427,2.50952812 17.0303453,2.63822186 C17.0953466,2.70256874 17.2253493,2.95995624 17.2253493,3.28169061 L17.3553519,3.86081249 C17.4203532,3.98950623 17.4853545,4.50428123 17.4853545,4.76166873 L17.4853545,4.95470936 C17.4203532,4.95470936 17.3553519,4.95470936 17.3553519,4.89036248 C17.3553519,4.82601561 17.2903506,4.82601561 17.2253493,4.82601561 C17.160348,4.82601561 17.0953466,4.76166873 17.0303453,4.69732186 L17.0953466,5.14774998 L16.965344,5.27644373 L16.77034,5.3407906 L16.7053387,5.21209686 L16.3153308,5.27644373 C16.1853282,5.27644373 16.1203269,5.21209686 16.1203269,5.14774998 C16.1203269,4.95470936 15.7953203,4.82601561 15.6003163,4.82601561 L15.4703137,4.89036248 L15.535315,4.76166873 C15.535315,4.69732186 15.3403111,4.63297498 15.0803058,4.63297498 C14.9503031,4.63297498 14.8853018,4.56862811 14.8853018,4.50428123 C14.8853018,4.37558748 14.8203005,4.37558748 14.7552992,4.37558748 C14.7552992,4.37558748 14.6902979,4.37558748 14.6252966,4.50428123 L14.105286,4.82601561 C13.1302662,5.27644373 12.0252438,6.30599373 11.5052333,7.27119685 C11.440232,7.46423747 11.3102293,7.6572781 11.245228,7.6572781 L11.245228,7.85031872 C11.245228,7.97901247 11.245228,7.97901247 11.1802267,7.97901247 L11.1152254,7.97901247 L11.0502241,8.10770622 C11.0502241,8.23639997 11.0502241,8.36509372 10.9852227,8.36509372 L10.7902188,8.87986872 C10.8552201,8.87986872 10.8552201,9.00856247 10.8552201,9.13725622 L10.8552201,9.26594996 L10.9202214,9.45899059 L10.9852227,9.58768434 L10.8552201,9.65203121 C10.7902188,9.71637809 10.7252175,9.78072496 10.7252175,9.84507184 C10.7252175,10.0381125 10.5952148,10.4885406 10.5302135,10.6172343 C10.4652122,10.6815812 10.4652122,10.810275 10.4652122,10.8746218 C10.4652122,11.32505 10.4002109,11.7754781 10.3352096,11.7754781 L10.2702082,11.7754781 C10.1402056,11.7754781 10.010203,11.9041718 10.010203,11.9685187 L10.1402056,12.1615593 L10.1402056,12.0972125 C10.1402056,11.9685187 10.2052069,11.9041718 10.2702082,11.9041718 L10.3352096,12.0328656 L10.4002109,12.2259062 L10.2702082,13.5128437 C10.2702082,13.6415374 10.2702082,13.6415374 10.3352096,13.6415374 C10.4652122,13.6415374 10.4652122,13.7058843 10.4652122,13.8345781 C10.4652122,13.8989249 10.4652122,14.0276187 10.4002109,14.0919656 C10.3352096,14.1563124 10.2052069,14.3493531 10.2052069,14.5423937 L10.1402056,14.8641281 C10.1402056,14.9284749 10.2052069,14.9284749 10.2702082,14.9284749 C10.3352096,14.9284749 10.4652122,14.9928218 10.4652122,15.0571687 L10.4002109,15.1858624 L10.1402056,15.1858624 L9.94520166,15.2502093 C10.1402056,15.3145562 10.2052069,15.3145562 10.4002109,15.3145562 C10.4002109,15.3145562 10.4652122,15.4432499 10.4652122,15.6362906 C10.4652122,15.7649843 10.4002109,15.8293312 10.4002109,15.8293312 L10.2702082,15.7649843 C10.2702082,15.7649843 10.2052069,16.0223718 10.2052069,16.4727999 C10.2052069,16.7945343 10.2052069,16.8588812 10.2702082,16.8588812 L10.3352096,16.8588812 C10.4002109,16.7945343 10.5952148,16.7945343 10.7902188,16.7945343 C10.9202214,16.7301874 11.1152254,16.7301874 11.1152254,16.6658406 L11.440232,16.6658406 L11.6352359,16.7301874 L11.7002372,16.6658406 C11.7002372,16.6014937 11.7652386,16.5371468 11.8302399,16.5371468 C11.9602425,16.5371468 12.0902452,16.5371468 12.2202478,16.4727999 C12.2852491,16.4084531 12.5452544,16.3441062 12.7402583,16.3441062 C12.9352623,16.3441062 13.1302662,16.2797593 13.1952676,16.2154124 L13.6502768,16.1510656 C13.8452807,16.1510656 14.0402847,16.1510656 14.105286,16.0867187 C14.1702873,16.0223718 14.4302926,15.9580249 14.6252966,15.9580249 C14.8853018,15.9580249 15.2753097,15.8936781 15.535315,15.8293312 L16.5753361,15.6362906 C16.9003427,15.6362906 17.160348,15.6362906 17.160348,15.5719437 L17.2903506,15.6362906 L17.3553519,15.7649843 L17.4853545,15.7006374 C17.6803585,15.6362906 17.9403638,15.5719437 18.2653704,15.5719437 C18.395373,15.5719437 18.5253756,15.5075968 18.5253756,15.4432499 L18.590377,15.3789031 C18.6553783,15.3789031 18.7203796,15.4432499 18.7203796,15.5075968 C18.7203796,15.6362906 18.7853809,15.6362906 18.9803849,15.6362906 L19.1753888,15.6362906 C19.4353941,15.6362906 19.6953994,15.7006374 20.1504086,15.8293312 C21.1254284,16.1510656 21.5154363,16.3441062 22.1654494,17.0519218 C22.490456,17.3093093 22.7504613,17.5666968 22.8804639,17.5666968 L23.0104666,17.6310437 L22.8804639,17.7597374 C22.8154626,17.8240843 22.7504613,17.8240843 22.7504613,17.8884312 L23.0104666,17.8240843 L23.1404692,17.8884312 L23.0104666,18.0814718 C23.0104666,18.1458187 23.0754679,18.1458187 23.2054705,18.1458187 L23.3354732,18.1458187 L23.1404692,18.2745124 C23.1404692,18.3388593 23.1404692,18.3388593 23.2704718,18.3388593 C23.4004745,18.3388593 23.4654758,18.3388593 23.4654758,18.4032062 C23.4654758,18.4675531 23.4004745,18.4675531 23.3354732,18.4675531 L23.2704718,18.4675531 C23.1404692,18.4675531 23.0754679,18.5318999 23.0754679,18.5962468 L23.1404692,18.7249406 C23.2054705,18.7892874 23.2704718,18.8536343 23.2704718,18.9823281 L23.2054705,19.1110218 L23.0754679,19.1110218 L22.9454653,19.1753687 L22.8804639,19.2397156 L22.9454653,19.3040624 L23.1404692,19.2397156 L23.4654758,19.1753687 C23.4654758,19.3040624 23.3354732,19.3684093 23.2054705,19.3684093 L22.8154626,19.5614499 L22.5554574,19.4327562 L22.3604534,19.5614499 L22.0354468,19.4971031 C21.7754415,19.4327562 21.3204323,19.3684093 20.8654231,19.3684093 C20.4754152,19.3040624 20.0854073,19.3040624 20.0204059,19.2397156 L19.9554046,19.2397156 L20.0204059,19.4971031 L19.9554046,19.4971031 C19.9554046,19.4327562 19.7604007,19.3684093 19.630398,19.3684093 C19.5003954,19.3684093 19.3703928,19.4327562 19.3703928,19.4971031 C19.3703928,19.6257968 19.3053914,19.6257968 18.395373,19.6901437 C18.0703664,19.7544906 17.7453598,19.7544906 17.6803585,19.8188374 L16.5103348,20.011878 L16.3803321,19.8831843 C16.3803321,19.8188374 16.2503295,19.7544906 16.1853282,19.7544906 L16.1203269,19.7544906 L16.2503295,19.9475312 C16.2503295,20.011878 16.1853282,20.011878 15.9903242,20.0762249 C15.9253229,20.0762249 15.7953203,20.0762249 15.730319,20.1405718 L15.6653176,20.1405718 L15.6003163,20.0762249 C15.6003163,20.011878 15.730319,19.9475312 15.7953203,19.9475312 L15.9253229,19.8831843 L15.8603216,19.8188374 L15.6653176,19.7544906 C15.535315,19.7544906 15.4053124,19.8188374 15.4053124,19.9475312 L15.4053124,20.0762249 C15.4053124,20.1405718 15.3403111,20.2049187 15.2753097,20.2049187 C15.2103084,20.2049187 15.0153045,20.2049187 14.9503031,20.2692655 C14.8203005,20.2692655 14.8203005,20.2692655 14.8203005,20.1405718 L14.8203005,20.0762249 C14.8203005,20.011878 14.7552992,19.9475312 14.6902979,19.9475312 C14.5602952,19.9475312 14.4952939,20.011878 14.4952939,20.0762249 L14.5602952,20.2692655 C14.5602952,20.2692655 14.4952939,20.3336124 14.3652913,20.3336124 C14.2352886,20.3336124 13.9752834,20.3979593 13.8452807,20.526653 L13.5852755,20.5909999 C13.5202741,20.5909999 13.5202741,20.5909999 13.4552728,20.4623062 L13.3252702,20.3336124 L13.3252702,20.4623062 C13.3252702,20.5909999 13.0652649,20.7196937 12.675257,20.7840405 C12.5452544,20.7840405 12.4152517,20.8483874 12.3502504,20.9127343 C12.2852491,21.041428 12.2202478,21.041428 12.1552465,21.041428 L12.1552465,20.9127343 L12.0252438,21.041428 L11.6352359,21.1057749 C11.5702346,21.1057749 11.440232,21.1057749 11.3752307,21.1701218 L11.245228,21.2344687 L10.9202214,21.1057749 L10.9202214,21.1701218 C10.9202214,21.2344687 10.7902188,21.3631624 10.7252175,21.3631624 C10.5952148,21.4275093 10.5302135,21.4918562 10.5302135,21.556203 L10.5302135,21.6205499 C10.5302135,21.7492437 10.3352096,21.8779374 10.2052069,21.8779374 L10.1402056,21.9422843 L10.2052069,22.070978 C10.2702082,22.070978 10.3352096,22.1353249 10.3352096,22.1996718 C10.3352096,22.2640187 10.2702082,22.3283655 10.2052069,22.3283655 L10.1402056,22.3283655 L10.0752043,22.4570593 C10.0752043,22.585753 10.0752043,22.585753 10.2052069,22.585753 L10.2702082,22.585753 C10.3352096,22.585753 10.3352096,22.585753 10.3352096,22.6500999 L10.4002109,22.8431405 L10.2052069,22.8431405 C10.2052069,22.8431405 10.1402056,22.9074874 10.1402056,23.0361812 C10.1402056,23.1648749 10.2052069,23.2292218 10.2052069,23.2292218 L10.2702082,23.1648749 L10.3352096,23.2935687 L10.3352096,23.4222624 C10.3352096,23.5509562 10.3352096,23.615303 10.2702082,23.615303 L10.2052069,23.615303 C10.2052069,23.615303 10.1402056,23.6796499 10.1402056,23.8083437 C10.1402056,23.9370374 10.2052069,24.0013843 10.2052069,24.0013843 C10.3352096,24.0013843 10.4002109,24.3231187 10.4002109,24.644853 L10.4002109,24.7735468 L10.2702082,24.7091999 C10.2052069,24.5805062 10.1402056,24.5805062 10.0752043,24.5805062 L10.4002109,25.159628 L10.2702082,25.2239749 C10.2052069,25.2239749 10.1402056,25.2239749 10.1402056,25.3526687 L10.1402056,25.4170155 C10.1402056,25.4813624 10.2052069,25.5457093 10.2702082,25.5457093 C10.4002109,25.5457093 10.4002109,25.6100562 10.4002109,25.674403 C10.4002109,25.7387499 10.4002109,25.8030968 10.2702082,25.8030968 C10.2052069,25.8030968 10.1402056,25.8674437 10.1402056,26.1248312 C10.1402056,26.2535249 10.2052069,26.4465655 10.2702082,26.4465655 L10.3352096,26.3822186 L10.2702082,25.9961374 L10.3352096,25.9961374 C10.4652122,26.1248312 10.5302135,26.4465655 10.5302135,26.7682999 C10.5302135,27.1543811 10.4002109,27.6048093 10.2702082,27.6048093 C10.2052069,27.6048093 10.1402056,27.6048093 10.1402056,27.6691561 C10.1402056,27.6691561 10.1402056,27.7978499 10.0752043,27.8621968 C10.0752043,27.9908905 10.0752043,27.9908905 10.2052069,27.9908905 C10.2702082,27.9265436 10.3352096,27.8621968 10.3352096,27.733503 L10.3352096,27.6691561 L10.4002109,27.7978499 C10.5302135,27.9265436 10.5302135,28.6987061 10.5302135,29.9212968 C10.5302135,30.1786843 10.4652122,30.307378 10.4002109,30.307378 C10.3352096,30.307378 10.2702082,30.307378 10.2702082,30.3717249 L10.2702082,30.5004186 L10.3352096,30.4360718 C10.4652122,30.4360718 10.5302135,30.5004186 10.5302135,30.822153 C10.5302135,31.0795405 10.5302135,31.1438874 10.4652122,31.1438874 L10.4002109,31.0795405 C10.3352096,30.9508468 10.3352096,30.8864999 10.2702082,30.8864999 L10.2702082,31.2725811 C10.2702082,31.5299686 10.3352096,31.7230093 10.3352096,31.7230093 C10.4002109,31.7230093 10.4002109,31.6586624 10.4002109,31.5299686 L10.4002109,31.4656218 C10.4002109,31.4656218 10.4652122,31.5943155 10.4652122,31.7873561 L10.5302135,32.4951718 C10.5302135,32.6882124 10.5302135,32.8169061 10.4652122,32.8169061 L10.3352096,32.7525593 C10.2702082,32.7525593 10.2702082,32.7525593 10.2702082,32.8169061 L10.2702082,32.881253 L10.0752043,33.0099467 L10.1402056,33.0099467 C10.2702082,33.0099467 10.3352096,33.0742936 10.3352096,33.1386405 C10.3352096,33.2029874 10.2702082,33.2673342 10.2052069,33.2673342 L10.1402056,33.3316811 L10.2052069,33.3316811 C10.2702082,33.3316811 10.3352096,33.2673342 10.4002109,33.1386405 L10.4652122,33.0099467 L10.5302135,33.2029874 C10.5302135,33.3316811 10.4652122,33.4603749 10.4002109,33.5247217 L10.3352096,33.6534155 L10.4652122,33.5890686 L10.5302135,33.7177624 L10.4652122,33.8464561 L10.4002109,33.7821092 L10.2052069,33.9751499 L10.1402056,34.1038436 L10.2702082,34.1038436 L10.2702082,34.2325374 C10.2702082,34.2968842 10.3352096,34.3612311 10.4002109,34.3612311 C10.4652122,34.3612311 10.4652122,34.4899249 10.5302135,34.6829655 C10.5302135,34.8760061 10.5302135,34.940353 10.4652122,34.940353 L10.4002109,34.940353 C10.3352096,34.940353 10.2702082,35.0046999 10.2702082,35.1333936 L10.3352096,35.3264342 L10.4002109,35.3907811 L10.4002109,35.3264342 C10.4002109,35.1977405 10.4652122,35.1333936 10.5302135,35.0690467 L10.5952148,35.1333936 L10.5302135,35.2620874 C10.5302135,35.3907811 10.5302135,35.6481686 10.5952148,35.8412092 L10.6602162,36.0342499 L10.5952148,36.0985967 L10.5302135,36.4203311 C10.5302135,36.6133717 10.4652122,36.8064124 10.4002109,36.8064124 C10.3352096,36.8064124 10.3352096,36.9351061 10.3352096,36.999453 C10.3352096,37.0637999 10.3352096,37.0637999 10.4002109,37.0637999 C10.4002109,36.999453 10.4652122,36.9351061 10.5302135,36.9351061 C10.5952148,36.9351061 10.6602162,37.0637999 10.6602162,37.1281467 C10.6602162,37.1924936 10.5952148,37.2568405 10.5302135,37.3211874 L10.4652122,37.3211874 L10.5302135,37.3211874 C10.5952148,37.3211874 10.6602162,37.3855342 10.6602162,37.6429217 L10.5302135,39.1228999 L10.5302135,39.8307155 C10.5952148,39.8307155 10.5952148,40.3454905 10.5952148,40.9246123 C10.5952148,41.6967748 10.5952148,41.9541623 10.4652122,42.0828561 L10.3352096,42.2115498 L10.2052069,42.147203 L9.94520166,42.2758967 L10.010203,42.3402436 C10.0752043,42.3402436 10.0752043,42.4045905 10.0752043,42.5332842 C10.010203,42.661978 9.88020034,42.7263248 9.81519902,42.7263248 C9.7501977,42.7263248 9.7501977,42.7263248 9.7501977,42.661978 L9.7501977,42.5976311 C9.68519638,42.5976311 9.68519638,42.5976311 9.55519375,42.7263248 L9.29518848,42.8550186 Z M17.160348,19.7544906 L17.6153572,19.6257968 L17.8753625,19.4971031 C17.8753625,19.4327562 17.9403638,19.4327562 18.0053651,19.4327562 L18.2653704,19.4327562 L18.2653704,19.3684093 C18.2653704,19.3684093 18.200369,19.3040624 18.0703664,19.3040624 C17.8753625,19.3040624 17.7453598,19.3040624 17.7453598,19.3684093 C17.7453598,19.4327562 17.6153572,19.4971031 17.5503559,19.4971031 L17.0303453,19.7544906 L17.160348,19.7544906 L17.160348,19.7544906 Z M10.1402056,35.0046999 L10.1402056,34.940353 C10.2052069,34.8760061 10.2702082,34.8116592 10.3352096,34.8116592 C10.4002109,34.8116592 10.4652122,34.7473124 10.4652122,34.6829655 C10.4652122,34.6829655 10.4652122,34.6186186 10.4002109,34.6186186 L10.2702082,34.6829655 C10.1402056,34.7473124 10.0752043,34.8760061 10.0752043,34.940353 C10.0752043,35.0046999 10.0752043,35.0046999 10.1402056,35.0046999 Z M10.2702082,36.2272905 C10.4002109,36.2272905 10.4652122,36.1629436 10.4652122,35.9055561 L10.4002109,35.7125155 L10.4002109,35.8412092 C10.3352096,36.0342499 10.0752043,36.0342499 10.0752043,36.0985967 C10.0752043,36.1629436 10.1402056,36.2272905 10.2702082,36.2272905 L10.2702082,36.2272905 Z M39.7158053,28.3769718 L39.650804,28.248278 C39.5858027,28.1195843 39.5858027,28.0552374 39.4558,28.0552374 L39.1957948,28.1839311 L39.0657921,28.3126249 L38.9357895,28.1839311 L38.8057869,28.3126249 L38.6757842,28.248278 C38.6757842,28.1839311 38.6757842,28.1195843 38.7407855,28.0552374 L38.8057869,27.9908905 L38.6757842,27.9908905 C38.6107829,27.9908905 38.5457816,27.9908905 38.5457816,28.0552374 L38.5457816,28.3126249 L38.220775,27.9908905 C38.0907724,27.7978499 38.025771,27.733503 37.9607697,27.733503 L37.8957684,27.733503 C37.8957684,27.733503 37.8307671,27.6691561 37.8307671,27.5404624 C37.7657658,27.1543811 37.5707618,26.8326468 37.5057605,26.8326468 C37.4407592,26.8326468 37.4407592,26.8969936 37.4407592,26.9613405 C37.4407592,27.0256874 37.4407592,27.0900343 37.3757579,27.0900343 L37.1157526,26.9613405 C36.9857499,26.8326468 36.9207486,26.4465655 36.595742,25.159628 C36.5307407,24.9022405 36.5307407,23.8726905 36.4657394,22.5214062 C36.4657394,21.2988155 36.4657394,20.2049187 36.4007381,20.1405718 L36.4007381,19.6901437 C36.4007381,19.4971031 36.4007381,19.0466749 36.3357368,18.7249406 C36.3357368,18.3388593 36.3357368,18.2101656 36.2707355,18.2101656 L35.9457289,18.7249406 C35.8807275,18.7892874 35.8807275,18.8536343 35.8157262,18.8536343 C35.8157262,18.7892874 35.8157262,18.7892874 35.7507249,18.7892874 C35.6857236,18.8536343 35.6857236,18.9823281 35.6857236,19.1110218 C35.6857236,19.2397156 35.6857236,19.3684093 35.555721,19.4971031 L35.360717,19.8831843 C35.360717,19.9475312 35.2957157,20.011878 35.0357104,20.011878 L34.9707091,20.011878 L35.0357104,20.011878 L35.165713,20.1405718 L35.0357104,20.2049187 C34.9707091,20.2049187 34.8407065,20.3979593 34.7107038,20.5909999 C34.6457025,20.7196937 34.5156999,20.9127343 34.4506985,20.9127343 L34.3206959,21.1057749 C34.3206959,21.2988155 33.9956893,21.6205499 33.8656867,21.6205499 L33.8006854,21.6205499 C33.735684,21.6205499 33.735684,21.6205499 33.735684,21.6848968 L33.735684,21.7492437 L33.6706827,21.9422843 L33.6056814,22.2640187 C33.6056814,22.4570593 33.4106775,22.7787937 33.1506722,23.0361812 C32.9556682,23.1648749 32.8256656,23.3579155 32.8256656,23.4222624 C32.8256656,23.5509562 32.7606643,23.5509562 32.500659,23.5509562 C32.4356577,23.5509562 32.4356577,23.5509562 32.4356577,23.615303 L32.500659,23.7439968 C32.500659,23.9370374 32.0456498,24.5161593 31.7856445,24.644853 C31.6556419,24.644853 31.6556419,24.7091999 31.6556419,24.7735468 C31.6556419,24.9665874 30.6806221,25.8674437 30.4856181,25.8674437 L30.0956102,26.0604843 C29.9656076,26.189178 29.640601,26.3178718 29.3805957,26.3822186 L28.5355786,26.4465655 C28.3405747,26.4465655 28.1455707,26.4465655 28.1455707,26.3822186 C28.1455707,26.3822186 28.1455707,26.3178718 28.0155681,26.3178718 C27.4955575,26.2535249 26.975547,26.189178 26.8455443,26.0604843 C26.780543,25.9961374 26.6505404,25.9961374 26.6505404,25.9961374 L26.2605325,25.8674437 C26.1305298,25.7387499 25.8705246,25.6100562 25.7405219,25.6100562 C25.6755206,25.5457093 25.6105193,25.5457093 25.6105193,25.4813624 L25.7405219,25.4170155 L25.545518,25.2883218 C25.4805167,25.2239749 25.350514,25.2239749 25.2855127,25.2239749 L25.2205114,25.2239749 L25.2205114,25.159628 C25.2205114,25.0952812 25.1555101,25.0309343 25.0255074,25.0309343 C24.8955048,25.0309343 24.7005008,24.8378937 24.5054969,24.7091999 C24.3104929,24.5161593 24.0504877,24.3231187 23.920485,24.2587718 C23.7254811,24.1944249 23.5954784,24.0657312 23.5304771,23.9370374 C23.5304771,23.8083437 23.4004745,23.6796499 23.3354732,23.615303 C23.2704718,23.5509562 23.2054705,23.4866093 23.2054705,23.4222624 C23.2054705,23.3579155 23.1404692,23.2935687 23.0754679,23.2292218 C22.4254547,22.5214062 21.8404429,21.7492437 21.5154363,21.041428 C21.4504349,20.9127343 21.3204323,20.526653 21.1254284,20.2692655 C20.9954257,19.8188374 20.8654231,19.4971031 20.8004218,18.7892874 L20.7354204,17.6310437 L20.8004218,17.0519218 C20.8654231,17.0519218 20.8654231,16.9232281 20.8654231,16.7301874 C20.8654231,16.4727999 20.9304244,16.2797593 21.060427,16.1510656 C21.1904297,16.0867187 21.3204323,15.8293312 21.3854336,15.6362906 C21.4504349,15.3789031 21.5154363,15.1858624 21.6454389,15.0571687 C21.7104402,14.9928218 21.7754415,14.8641281 21.7754415,14.7354343 C21.7754415,14.6710874 21.8404429,14.5423937 21.9054442,14.5423937 C21.9704455,14.4780468 22.68546,13.4484968 22.68546,13.3841499 C22.68546,13.3198031 22.68546,13.2554562 22.7504613,13.2554562 C22.8154626,13.2554562 22.8154626,13.2554562 22.8154626,13.1267625 C22.8154626,13.0624156 22.8804639,12.9980687 22.9454653,12.9980687 L23.4654758,12.3546 C23.5954784,12.2902531 23.7904824,12.0328656 23.7904824,11.839825 L23.7254811,11.7111312 C23.7254811,11.6467843 23.7254811,11.6467843 23.7904824,11.6467843 L23.8554837,11.6467843 L23.9854863,11.5824375 L24.0504877,11.5180906 L23.9854863,11.4537437 C23.9854863,11.4537437 23.9854863,11.3893968 24.0504877,11.3893968 C24.1804903,11.32505 24.3104929,11.1320093 24.4404956,10.9389687 C24.6354995,10.7459281 24.7655022,10.4885406 24.8305035,10.4885406 C25.0255074,10.2311531 26.0005272,9.07290934 26.0005272,9.00856247 L26.1955312,8.87986872 C26.2605325,8.87986872 26.3905351,8.75117497 26.3905351,8.62248122 C26.4555364,8.42944059 27.6255602,7.20684997 28.2755733,6.75642185 L29.7706037,5.53383123 L30.4856181,5.14774998 C30.6156208,5.08340311 30.6806221,5.01905623 30.6806221,4.95470936 L30.6806221,4.82601561 L31.0056287,4.69732186 C31.4606379,4.50428123 32.7606643,4.18254686 33.2806748,4.11819998 L33.8656867,4.05385311 L33.9956893,3.98950623 C34.0606906,3.98950623 34.0606906,4.05385311 34.0606906,4.11819998 C34.0606906,4.18254686 34.1906933,4.31124061 34.3206959,4.43993436 L34.6457025,4.69732186 L34.8407065,4.76166873 C34.9057078,4.76166873 34.9707091,4.82601561 34.9707091,4.89036248 C35.0357104,5.01905623 35.1007117,5.14774998 35.2307144,5.21209686 C35.8157262,5.53383123 36.3357368,6.1129531 36.4657394,6.43468748 C36.5307407,6.69207497 36.595742,6.75642185 36.7257447,6.75642185 C36.790746,6.75642185 36.8557473,6.6277281 36.8557473,6.56338123 L36.8557473,6.49903435 L36.9207486,6.49903435 L36.9207486,6.1129531 L36.9857499,6.1129531 L37.1157526,6.04860623 C37.1807539,5.98425935 37.2457552,5.01905623 37.2457552,4.43993436 C37.2457552,4.18254686 37.3107565,3.92515936 37.3757579,3.79646561 C37.4407592,3.66777186 37.5057605,3.47473124 37.5057605,3.34603749 C37.5057605,3.21734374 37.5057605,3.08864999 37.5707618,3.08864999 C37.6357631,3.08864999 37.7007644,3.15299686 37.7007644,3.21734374 C37.7007644,3.34603749 37.8307671,3.41038436 37.9607697,3.41038436 C38.1557737,3.47473124 38.3507776,3.53907811 38.4157789,3.60342499 C38.4157789,3.66777186 38.5457816,3.73211874 38.6757842,3.73211874 C38.7407855,3.73211874 38.9357895,3.79646561 39.1307934,3.92515936 C39.2607961,4.05385311 39.4558,4.18254686 39.5208014,4.18254686 C39.650804,4.24689373 39.7158053,4.37558748 39.7808066,4.50428123 C39.7808066,4.69732186 39.9108093,4.76166873 40.1708145,4.89036248 C40.3658185,5.01905623 40.5608224,5.14774998 40.5608224,5.27644373 C40.6258238,5.40513748 40.7558264,5.5981781 40.885829,5.66252498 C41.0158317,5.79121873 41.080833,5.91991248 41.080833,6.04860623 C41.080833,6.17729998 41.1458343,6.24164685 41.2108356,6.24164685 L41.3408383,6.1129531 L41.4058396,6.1129531 C41.4058396,6.1129531 41.4708409,6.17729998 41.4708409,6.30599373 C41.4708409,6.43468748 41.4708409,6.6277281 41.5358422,6.6277281 L41.6008435,7.72162497 C41.6008435,8.62248122 41.5358422,9.65203121 41.4708409,9.78072496 C41.4058396,10.0381125 41.3408383,10.7459281 41.3408383,11.1963562 C41.3408383,11.32505 41.3408383,11.4537437 41.2758369,11.5180906 C41.2108356,11.7111312 41.2108356,11.9685187 41.2108356,12.7406812 C41.1458343,13.0624156 41.1458343,13.3841499 41.080833,13.3841499 C41.0158317,13.3841499 41.0158317,13.5128437 41.0158317,13.6415374 L40.9508303,13.9632718 C40.885829,13.9632718 40.885829,13.9632718 40.885829,14.0276187 L40.885829,14.0919656 C40.885829,14.1563124 40.885829,14.2850062 40.8208277,14.4136999 L40.7558264,14.6067406 L40.885829,14.7997812 L40.7558264,14.9284749 L40.885829,15.0571687 L40.7558264,15.3789031 C40.6908251,15.5075968 40.6908251,15.7649843 40.6908251,15.8936781 C40.6908251,15.9580249 40.6258238,16.0867187 40.5608224,16.0867187 C40.4958211,16.0867187 40.4958211,16.1510656 40.4958211,16.2154124 L40.5608224,16.3441062 C40.6258238,16.3441062 40.6908251,16.4084531 40.6908251,16.4727999 L40.6258238,16.7301874 L40.5608224,17.1162687 L40.6258238,17.1806156 L40.5608224,17.3736562 C40.4958211,17.5023499 40.4958211,17.7597374 40.4958211,17.9527781 C40.4958211,18.1458187 40.4958211,18.2745124 40.4308198,18.2745124 C40.3658185,18.2745124 40.3658185,18.2745124 40.3658185,18.3388593 L40.3658185,18.4032062 C40.4308198,18.4675531 40.4308198,19.1110218 40.4308198,19.7544906 L40.4958211,21.1701218 L40.6258238,21.041428 L40.6908251,21.1057749 L40.5608224,21.2988155 C40.4308198,21.3631624 40.4308198,21.4275093 40.4308198,21.556203 C40.4958211,21.8135905 40.6258238,23.2935687 40.6258238,24.1944249 C40.6258238,24.5161593 40.6258238,24.7735468 40.5608224,24.7735468 C40.4958211,24.7735468 40.4308198,24.9022405 40.4308198,25.0309343 L40.4958211,25.2883218 C40.6258238,25.4170155 40.6908251,25.674403 40.6908251,25.8030968 L40.6908251,25.9317905 C40.6258238,25.9317905 40.6258238,25.9961374 40.6258238,26.0604843 L40.5608224,26.4465655 L40.4308198,27.0256874 C40.4308198,27.1543811 40.4308198,27.2830749 40.3658185,27.3474218 L40.3008172,27.6048093 C40.3008172,27.7978499 40.3008172,27.7978499 40.1058132,27.7978499 L40.0408119,27.7978499 C39.9758106,27.7978499 39.9758106,27.8621968 39.9758106,28.0552374 C39.9758106,28.1839311 39.9758106,28.248278 39.9108093,28.248278 L39.7808066,28.1195843 L39.7158053,28.3769718 Z M25.8705246,22.0066312 L26.3255338,21.9422843 C26.5205377,21.9422843 26.780543,21.8779374 26.8455443,21.8135905 L27.1055496,21.6848968 C27.3005536,21.6205499 27.8855654,21.3631624 28.0805694,21.1701218 L28.6005799,20.7840405 L28.8605852,20.526653 C28.9905878,20.2692655 29.1855918,20.0762249 29.3155944,20.0762249 C29.4455971,20.0762249 30.1606116,19.1753687 30.1606116,18.9823281 L30.1606116,18.9179812 L30.2906142,18.6605937 C30.2256129,18.4675531 30.2256129,18.4675531 30.0306089,18.4675531 L29.7056023,18.4032062 C29.640601,18.4032062 29.640601,18.4675531 29.640601,18.5318999 C29.5755997,18.5318999 29.5755997,18.4675531 29.5755997,18.4032062 C29.5755997,18.3388593 29.640601,18.2745124 29.7706037,18.2101656 L29.9006063,18.1458187 L29.9006063,17.8884312 L29.9656076,17.8240843 C30.0956102,17.8240843 30.2256129,17.9527781 30.2256129,18.0171249 L30.0956102,18.0171249 C30.0306089,18.0171249 29.9656076,18.0814718 29.9656076,18.2101656 L29.9656076,18.4032062 C30.3556155,18.0814718 30.7456234,17.8884312 30.8756261,17.3093093 C30.9406274,17.1162687 31.07063,16.9232281 31.265634,16.9232281 C31.3956366,16.9232281 31.4606379,16.8588812 31.4606379,16.7945343 C31.4606379,16.7301874 31.4606379,16.7301874 31.5256392,16.7301874 L31.6556419,16.7301874 L31.6556419,16.6658406 C31.6556419,16.5371468 31.7206432,16.4727999 31.7856445,16.4727999 C31.8506458,16.4727999 31.9156471,16.4084531 31.9156471,16.3441062 L31.8506458,16.1510656 L31.9806485,16.2154124 C31.9806485,16.2154124 32.0456498,16.2154124 32.0456498,16.1510656 C32.0456498,16.0867187 32.1106511,16.0867187 32.1756524,16.0867187 C32.2406537,16.0867187 32.3056551,16.0223718 32.3056551,15.9580249 C32.3056551,15.8293312 32.3056551,15.8293312 32.2406537,15.8293312 L32.1756524,15.8936781 L32.1756524,15.8293312 C32.1756524,15.7649843 32.1756524,15.5719437 32.3056551,15.3789031 C32.3706564,15.3145562 32.4356577,15.1858624 32.4356577,15.0571687 L32.4356577,14.9284749 L32.7606643,14.9284749 C32.8256656,14.9284749 32.8906669,14.9284749 32.8906669,14.8641281 L32.8906669,14.7354343 C32.8906669,14.5423937 32.9556682,14.4136999 33.2156735,14.2206593 C33.4106775,14.0276187 33.4756788,13.9632718 33.4756788,13.7702312 L33.4756788,13.6415374 C33.4756788,13.3198031 33.6056814,12.9980687 33.8006854,12.9980687 C33.8656867,12.9980687 33.930688,12.9337218 33.930688,12.869375 C33.930688,12.7406812 33.9956893,12.6763343 34.0606906,12.6763343 L34.125692,12.6763343 C34.125692,12.6763343 34.1906933,12.6119875 34.1906933,12.2902531 L34.1906933,12.2259062 L34.2556946,12.2259062 L34.3856972,12.0328656 C34.3856972,11.9041718 34.4506985,11.7754781 34.5156999,11.7754781 C34.5807012,11.7754781 34.5807012,11.7111312 34.5807012,11.6467843 L34.5156999,11.5180906 L34.6457025,11.4537437 C34.7107038,11.4537437 34.7757051,11.3893968 34.7757051,11.2607031 L34.8407065,11.0033156 C34.9057078,11.0033156 34.9707091,10.9389687 34.9707091,10.8746218 C34.9707091,10.810275 35.0357104,10.810275 35.1007117,10.810275 L35.165713,10.810275 C35.2307144,10.810275 35.2307144,10.7459281 35.2307144,10.4885406 C35.2307144,10.4241937 35.2957157,10.3598468 35.4257183,10.2955 C35.555721,10.2955 35.555721,10.2311531 35.555721,10.1024593 L35.555721,9.90941871 C35.6207223,9.90941871 35.6857236,9.78072496 35.6857236,9.71637809 C35.6857236,9.58768434 35.7507249,9.39464371 35.8807275,9.26594996 C36.0757315,9.00856247 36.1407328,8.81552184 36.1407328,8.62248122 C36.1407328,8.36509372 36.0107302,8.23639997 35.6857236,8.23639997 L35.4257183,8.23639997 C34.8407065,8.30074684 33.930688,8.62248122 33.930688,8.75117497 C33.930688,8.81552184 33.8656867,8.81552184 33.8006854,8.81552184 L33.735684,8.81552184 C33.6056814,8.81552184 32.9556682,9.20160309 32.9556682,9.26594996 C32.9556682,9.39464371 32.7606643,9.58768434 32.4356577,9.78072496 L31.8506458,10.2311531 C31.7206432,10.4241937 31.5906406,10.4885406 31.5256392,10.4885406 C31.5256392,10.4241937 31.5906406,10.2955 31.7206432,10.2311531 L31.7856445,10.0381125 C31.7206432,10.0381125 31.5256392,10.2311531 31.265634,10.4885406 L30.6156208,11.0033156 C30.4206168,11.1963562 29.7706037,11.9041718 29.7706037,11.9685187 C29.835605,11.9685187 30.1606116,11.6467843 30.5506195,11.2607031 C30.9406274,10.8746218 31.3306353,10.6172343 31.3306353,10.6172343 L31.3306353,10.6815812 C31.3306353,10.7459281 31.2006326,10.8746218 31.07063,11.0033156 C30.8756261,11.1320093 30.7456234,11.32505 30.7456234,11.32505 C30.7456234,11.32505 30.4856181,11.6467843 30.1606116,11.9041718 L29.5755997,12.4832937 C29.5755997,12.5476406 29.3805957,12.7406812 29.1855918,12.9980687 C28.9255865,13.3198031 28.7305826,13.5128437 28.7305826,13.5771906 L28.6005799,13.6415374 L28.5355786,13.5771906 C28.5355786,13.4484968 28.8605852,13.0624156 29.2505931,12.6119875 C29.4455971,12.4189468 29.5755997,12.2902531 29.5755997,12.2259062 C29.4455971,12.2259062 29.1855918,12.4832937 28.4705773,13.3198031 L28.210572,13.7058843 L28.405576,13.6415374 C28.405576,13.7702312 28.2755733,13.8989249 28.0805694,14.2206593 C27.6255602,14.8641281 27.4305562,15.1215156 27.4305562,15.2502093 L27.4955575,15.3789031 L27.3655549,15.3145562 L27.0405483,15.4432499 L27.1055496,15.3145562 C27.1055496,15.2502093 27.1055496,15.1858624 26.975547,15.1858624 C26.9105457,15.1858624 26.8455443,15.2502093 26.8455443,15.3145562 C26.8455443,15.3789031 26.8455443,15.4432499 26.780543,15.4432499 C26.7155417,15.4432499 26.5205377,15.8293312 26.5205377,16.0867187 L26.5205377,16.1510656 C26.5205377,16.2154124 26.5205377,16.2154124 26.4555364,16.2154124 L26.3255338,16.2154124 C26.3255338,16.2797593 26.3255338,16.3441062 26.2605325,16.3441062 C26.1955312,16.3441062 26.1955312,16.3441062 26.1955312,16.4084531 L26.0655285,16.7945343 L25.9355259,17.0519218 L26.0655285,17.1806156 L26.0005272,17.2449624 C25.9355259,17.2449624 25.9355259,17.3736562 25.9355259,17.4380031 C25.9355259,17.5023499 25.9355259,17.5023499 25.8705246,17.5023499 C25.8055233,17.5023499 25.6755206,17.6310437 25.6105193,17.8240843 L25.4155153,18.2101656 C25.350514,18.2101656 25.350514,18.2101656 25.350514,18.2745124 L25.350514,18.3388593 L25.1555101,18.8536343 C24.9605061,19.3040624 24.8955048,19.4971031 24.8955048,19.6257968 L24.9605061,19.7544906 L25.0255074,19.8188374 L24.8955048,19.9475312 C24.8305035,20.011878 24.7655022,20.0762249 24.7655022,20.1405718 L24.8955048,21.041428 L24.9605061,21.2344687 C25.0255074,21.2988155 25.0255074,21.4275093 25.0255074,21.6205499 C25.0255074,21.8779374 25.0905088,21.8779374 25.2855127,21.8779374 L25.6105193,21.8779374 L25.8705246,22.0066312 Z M35.0357104,10.2955 L35.1007117,9.97376559 L35.2307144,9.90941871 L35.2307144,9.97376559 L35.1007117,10.2311531 L35.0357104,10.2955 Z M36.0107302,15.9580249 C36.1407328,15.9580249 36.3357368,15.6362906 36.4007381,15.4432499 L36.4007381,15.2502093 L36.3357368,15.3789031 C36.2707355,15.5075968 36.2057341,15.6362906 36.1407328,15.6362906 C36.0757315,15.7006374 36.0107302,15.7649843 36.0107302,15.8936781 L36.0107302,15.9580249 L36.0107302,15.9580249 Z M36.0107302,17.1162687 L36.2707355,16.6014937 C36.2057341,16.6014937 36.2057341,16.6658406 36.0757315,16.7301874 L35.9457289,17.0519218 L36.0107302,17.1162687 Z M34.8407065,17.8240843 L34.9707091,17.7597374 L35.1007117,17.5023499 C35.1007117,17.5023499 35.1007117,17.4380031 35.0357104,17.4380031 C34.9707091,17.4380031 34.9707091,17.5023499 34.9707091,17.5023499 L34.9707091,17.5666968 L34.8407065,17.8240843 Z M36.3357368,17.9527781 C36.4007381,17.9527781 36.4657394,17.8884312 36.4657394,17.7597374 C36.4657394,17.6310437 36.4007381,17.5023499 36.3357368,17.5023499 L36.2707355,17.5023499 C36.1407328,17.5023499 36.0107302,17.5666968 36.0107302,17.6953906 L36.0107302,17.7597374 L36.2057341,17.6953906 C36.2707355,17.6953906 36.2707355,17.6953906 36.2707355,17.7597374 L36.2707355,17.8884312 C36.2707355,17.9527781 36.3357368,17.9527781 36.3357368,17.9527781 L36.3357368,17.9527781 Z M35.6857236,18.4675531 L35.8157262,18.4032062 L35.8807275,18.1458187 C35.8807275,18.0814718 35.8157262,18.0814718 35.8157262,18.0814718 L35.7507249,18.2101656 L35.6857236,18.4675531 Z M35.2957157,19.1110218 L35.4907196,18.8536343 L35.555721,18.7249406 L35.4907196,18.6605937 L35.2957157,18.9179812 L35.2307144,19.0466749 L35.2957157,19.1110218 Z M34.8407065,18.9823281 C34.9707091,18.9823281 35.0357104,18.9823281 35.0357104,18.9179812 L35.0357104,18.8536343 C35.0357104,18.7249406 35.0357104,18.7249406 34.9707091,18.7249406 L34.8407065,18.7892874 L34.6457025,18.9179812 C34.6457025,18.9823281 34.7107038,18.9823281 34.8407065,18.9823281 L34.8407065,18.9823281 Z M49.7260083,26.4465655 L49.661007,26.3822186 L49.5960056,26.4465655 L49.5310043,26.1248312 C49.5310043,26.0604843 49.466003,25.9961374 49.3360004,25.9961374 L49.2059977,25.9961374 L49.2709991,26.0604843 L49.3360004,26.2535249 L49.3360004,26.3178718 L49.1409964,26.3822186 C49.0109938,26.3822186 48.8809911,26.3178718 48.8809911,26.2535249 C48.8809911,26.189178 48.7509885,26.1248312 48.5559846,26.0604843 C48.4259819,25.9961374 48.230978,25.8674437 48.1659766,25.7387499 C48.035974,25.6100562 47.8409701,25.5457093 47.4509621,25.4813624 C47.0609542,25.4813624 46.8659503,25.3526687 46.6709463,25.159628 C46.4759424,25.0309343 46.4109411,24.9022405 46.4109411,24.8378937 L46.0859345,24.5805062 C45.8909305,24.3874655 45.7609279,24.1944249 45.7609279,24.130078 C45.7609279,24.0013843 45.7609279,23.9370374 45.6959266,23.9370374 C45.6309252,23.9370374 45.6309252,23.4222624 45.6309252,22.9074874 C45.6309252,22.3283655 45.6309252,21.6205499 45.5659239,21.2988155 L45.5009226,20.2692655 C45.5009226,19.9475312 45.5009226,19.6901437 45.4359213,19.6257968 L45.4359213,19.5614499 C45.5009226,19.5614499 45.5659239,19.3040624 45.5659239,19.1110218 L45.4359213,18.5962468 L45.5009226,18.5318999 C45.5659239,18.5318999 45.5659239,18.4032062 45.5659239,18.2101656 L45.5659239,17.0519218 C45.5659239,16.7945343 45.5009226,16.7301874 45.4359213,16.7301874 L45.3059187,16.7945343 C45.3059187,16.7301874 45.3059187,16.7301874 45.4359213,16.6014937 C45.5659239,16.4727999 45.6309252,16.2797593 45.6309252,15.6362906 C45.6309252,15.2502093 45.6309252,14.9928218 45.5659239,14.9928218 L45.4359213,15.1215156 C45.37092,15.1215156 45.3059187,14.9928218 45.3059187,14.7997812 C45.3059187,14.6067406 45.37092,14.4136999 45.4359213,14.4136999 C45.5659239,14.3493531 45.5659239,14.1563124 45.5659239,13.9632718 C45.5659239,13.7702312 45.5659239,13.5771906 45.4359213,13.5771906 L45.37092,13.5771906 L45.4359213,13.4484968 C45.5009226,13.3198031 45.5659239,13.1267625 45.5659239,12.9980687 L45.6309252,12.4832937 C45.6309252,12.0328656 45.5659239,11.839825 45.5009226,11.839825 L45.4359213,11.7111312 C45.4359213,11.6467843 45.4359213,11.6467843 45.5009226,11.6467843 C45.5659239,11.6467843 45.6309252,11.5180906 45.6309252,11.32505 L45.6959266,10.6172343 C45.6959266,10.5528875 45.6959266,10.5528875 45.6309252,10.5528875 L45.5009226,10.6172343 L45.5659239,10.5528875 C45.6309252,10.4241937 45.6309252,10.2955 45.6309252,10.1668062 C45.5659239,10.1024593 45.5659239,9.45899059 45.5659239,8.87986872 C45.5009226,8.30074684 45.5009226,7.1425031 45.5009226,6.30599373 L45.5009226,4.82601561 C45.8909305,4.82601561 46.0859345,4.82601561 46.4759424,4.69732186 C46.7359477,4.69732186 46.9959529,4.76166873 47.1259556,4.82601561 C47.3209595,4.95470936 47.5809648,5.01905623 47.7109674,5.01905623 L47.9059714,5.01905623 C47.9059714,5.08340311 47.9709727,5.08340311 47.9709727,5.08340311 L48.035974,5.08340311 C48.1659766,5.08340311 48.230978,5.14774998 48.230978,5.21209686 C48.230978,5.3407906 48.8159898,5.72687185 49.0109938,5.72687185 L49.2709991,5.79121873 C49.2709991,5.8555656 49.3360004,5.91991248 49.466003,5.91991248 C49.661007,5.98425935 49.7260083,6.04860623 49.7260083,6.17729998 C49.7260083,6.24164685 49.7910096,6.3703406 49.9210122,6.43468748 L50.0510149,6.75642185 C50.0510149,6.8851156 50.1160162,7.07815622 50.2460188,7.27119685 C50.4410228,7.52858435 50.4410228,7.78597185 50.4410228,9.39464371 L50.5060241,11.3893968 L50.5710254,11.4537437 C50.6360267,11.4537437 50.7010281,11.32505 50.9610333,10.8746218 L51.3510412,10.1024593 C51.4160425,9.90941871 51.6110465,9.58768434 51.7410491,9.45899059 L51.8060505,9.26594996 L51.8060505,9.00856247 C51.8060505,8.62248122 52.0660557,8.17205309 52.4560636,8.04335934 C52.5860663,7.97901247 52.5860663,7.85031872 52.5860663,7.78597185 C52.521065,7.72162497 52.521065,7.6572781 52.4560636,7.6572781 L52.3910623,7.6572781 C52.3910623,7.6572781 52.326061,7.6572781 52.326061,7.59293122 L52.4560636,7.52858435 C52.7160689,7.52858435 52.9760742,7.33554372 52.9760742,7.07815622 C52.9760742,6.82076872 53.1060768,6.56338123 53.1710781,6.56338123 C53.2360795,6.56338123 53.3660821,6.49903435 53.4310834,6.3703406 C53.4310834,6.24164685 53.561086,6.1129531 53.6260874,6.1129531 C53.6910887,6.1129531 53.6910887,6.04860623 53.6910887,6.04860623 L53.6910887,5.98425935 L53.8210913,5.72687185 C53.8860926,5.5981781 53.951094,5.40513748 54.0160953,5.40513748 C54.0160953,5.3407906 54.0810966,5.3407906 54.0810966,5.3407906 C54.1460979,5.3407906 54.2761005,5.27644373 54.3411019,5.14774998 L54.6011071,5.01905623 C54.7311098,5.01905623 54.8611124,5.01905623 54.8611124,4.89036248 C54.991115,4.76166873 56.0311361,4.50428123 56.9411546,4.50428123 C57.5911678,4.50428123 58.6961902,4.63297498 58.6961902,4.76166873 C58.6961902,4.76166873 58.7611915,4.82601561 58.8911941,4.82601561 C59.0211968,4.82601561 59.2162007,4.89036248 59.3462033,4.95470936 C59.8662139,5.27644373 60.1262192,5.40513748 60.2562218,5.40513748 L60.4512258,5.40513748 L60.4512258,5.53383123 C60.4512258,5.5981781 60.5162271,5.66252498 60.7762323,5.66252498 C61.1662403,5.66252498 62.2712627,6.3703406 62.2712627,6.56338123 L62.336264,6.69207497 L62.4012653,6.69207497 C62.5312679,6.69207497 62.6612706,6.82076872 62.7262719,6.94946247 L63.2462824,7.6572781 C63.5062877,7.97901247 63.571289,8.23639997 63.571289,8.36509372 L63.5062877,8.49378747 L63.6362903,8.49378747 C63.7012917,8.49378747 63.7012917,8.49378747 63.7012917,8.55813434 L63.7012917,8.75117497 C63.7012917,8.81552184 63.7012917,8.81552184 63.766293,8.81552184 L63.8962956,8.81552184 C63.9612969,8.81552184 64.0262982,8.87986872 64.0912996,9.00856247 C64.2213022,9.13725622 64.2213022,9.20160309 64.2213022,9.33029684 L64.1563009,9.52333746 L64.0912996,9.65203121 C64.0912996,9.71637809 64.0912996,9.71637809 64.1563009,9.71637809 C64.2213022,9.71637809 64.2863035,9.84507184 64.2863035,10.0381125 C64.2863035,10.1668062 64.3513048,10.4885406 64.4813075,10.6172343 L64.6113101,10.8746218 L64.5463088,11.0676625 L64.6763114,11.5180906 L64.6113101,11.6467843 C64.5463088,11.6467843 64.5463088,11.7111312 64.5463088,11.7754781 L64.6113101,11.9041718 C64.6763114,12.0328656 64.6763114,12.2259062 64.6763114,12.4189468 C64.6763114,12.6763343 64.6763114,12.9337218 64.5463088,13.0624156 L64.5463088,13.1267625 L64.6113101,13.0624156 L64.6763114,13.8345781 C64.6763114,14.4780468 64.6113101,15.1858624 64.5463088,15.2502093 C64.4813075,15.3145562 64.4813075,15.4432499 64.4813075,15.5719437 C64.4813075,15.6362906 64.4813075,15.7006374 64.5463088,15.7006374 L64.7413127,15.7006374 L64.6763114,15.8936781 L64.5463088,15.9580249 L64.5463088,15.8293312 L64.4813075,15.8936781 L64.6113101,16.1510656 L64.5463088,16.2797593 C64.4813075,16.3441062 64.4813075,16.4727999 64.4813075,16.5371468 L64.4813075,16.6658406 L64.6113101,16.6658406 L64.6113101,16.7301874 C64.6113101,16.7945343 64.6113101,16.8588812 64.5463088,16.9232281 C64.4813075,16.9232281 64.4163062,17.0519218 64.4163062,17.1806156 L64.3513048,17.3093093 L64.4163062,17.3736562 C64.4813075,17.3736562 64.4813075,17.5023499 64.4813075,17.6310437 C64.4813075,17.9527781 64.4163062,18.3388593 64.3513048,18.4675531 L64.2863035,18.6605937 L64.4813075,19.1110218 L64.3513048,19.3684093 L64.2863035,19.3684093 L64.3513048,19.4327562 L64.4813075,19.7544906 L64.2863035,20.1405718 L64.3513048,20.3336124 L64.4163062,21.041428 C64.4163062,21.9422843 64.2863035,23.4222624 64.1563009,23.4866093 C64.0912996,23.4866093 64.0912996,23.5509562 64.0912996,23.5509562 L64.0912996,23.615303 L63.9612969,23.7439968 L63.9612969,23.615303 L63.8962956,23.5509562 L63.5062877,23.7439968 L63.1162798,23.615303 L63.0512785,23.6796499 L63.1162798,23.7439968 C63.1812811,23.8083437 63.1812811,23.9370374 63.1812811,23.9370374 L63.1162798,23.9370374 L63.1162798,23.8726905 L62.9862772,23.8726905 L62.9212758,24.0013843 L62.9212758,24.0657312 L62.8562745,24.0657312 C62.7262719,24.0657312 62.7262719,24.0013843 62.7262719,23.9370374 C62.7262719,23.8726905 62.5962692,23.8083437 62.5312679,23.8083437 L61.9462561,23.7439968 L62.0112574,23.8083437 C62.0112574,23.9370374 61.8812547,24.1944249 61.6862508,24.1944249 C61.6212495,24.1944249 61.6212495,24.130078 61.6212495,24.0657312 L61.7512521,23.8083437 L61.8162534,23.7439968 L61.2962429,23.8083437 C61.2312416,23.8083437 61.1662403,23.7439968 61.1662403,23.615303 L61.1662403,23.4866093 L61.1012389,23.5509562 C61.0362376,23.615303 60.906235,23.615303 60.7762323,23.615303 C60.5162271,23.615303 60.1912205,23.5509562 60.1262192,23.3579155 C60.0612178,23.2292218 59.9312152,23.0361812 59.7362113,22.8431405 C59.5412073,22.6500999 59.3462033,22.3927124 59.3462033,22.3283655 L59.3462033,22.2640187 L59.281202,22.1353249 C59.2162007,22.070978 59.2162007,21.8779374 59.2162007,21.3631624 L59.281202,18.7249406 C59.3462033,17.5666968 59.476206,16.6014937 59.5412073,16.5371468 L59.6062086,16.4084531 L59.476206,15.9580249 C59.476206,15.7006374 59.6062086,15.4432499 59.6712099,15.4432499 C59.7362113,15.3789031 59.8012126,15.3145562 59.8012126,15.2502093 C59.8012126,15.1858624 59.8012126,15.1858624 59.7362113,15.1858624 L59.6712099,15.1858624 C59.6062086,15.1858624 59.6062086,15.1215156 59.6062086,15.0571687 L59.6712099,14.9284749 L59.6062086,14.9284749 L59.476206,14.8641281 C59.476206,14.7997812 59.5412073,14.6710874 59.6712099,14.6067406 L59.7362113,14.3493531 L59.7362113,13.7702312 L59.8662139,10.7459281 C59.8662139,10.2311531 59.8012126,9.97376559 59.6712099,9.52333746 C59.476206,8.68682809 59.281202,8.30074684 59.0861981,8.23639997 L58.9561954,8.23639997 C58.5661875,8.23639997 57.7861717,8.87986872 57.5911678,9.33029684 C57.5911678,9.52333746 57.5261664,9.65203121 57.4611651,9.65203121 C57.3961638,9.65203121 57.3311625,9.71637809 57.3311625,9.84507184 C57.3311625,9.90941871 57.2661612,10.0381125 57.2011599,10.0381125 L57.1361585,10.1668062 L57.1361585,10.2311531 C57.1361585,10.3598468 57.0711572,10.4885406 57.0061559,10.5528875 L56.8111519,10.810275 C56.8111519,10.7459281 56.8111519,10.7459281 56.7461506,10.7459281 C56.6811493,10.7459281 56.5511467,10.9389687 56.3561427,11.32505 L56.0961374,11.9041718 L56.0961374,12.0328656 C56.0961374,12.1615593 56.0311361,12.2259062 55.9011335,12.2902531 C55.7711309,12.3546 55.7061295,12.4832937 55.7061295,12.5476406 L55.7061295,12.6119875 L55.9011335,12.3546 L55.9011335,12.4832937 C55.8361322,12.5476406 55.7711309,12.6119875 55.7061295,12.6119875 C55.6411282,12.6119875 55.5111256,12.8050281 55.3811229,13.1267625 C55.186119,13.4484968 55.0561164,13.5771906 54.991115,13.5771906 L54.8611124,13.5128437 L54.8611124,13.6415374 C54.8611124,13.8989249 54.6661084,14.2850062 54.5361058,14.2850062 L54.4711045,14.2850062 L54.5361058,14.3493531 L54.2761005,15.1215156 L53.8860926,15.8936781 C53.8860926,15.9580249 53.8860926,15.9580249 53.8210913,15.9580249 C53.75609,15.9580249 53.6260874,16.2154124 53.561086,16.5371468 C53.3660821,17.0519218 53.3010808,17.1806156 53.0410755,17.6310437 L52.8460715,18.2101656 C52.7810702,18.4032062 52.7160689,18.5962468 52.6510676,18.5962468 L52.5860663,18.8536343 C52.5860663,18.9179812 52.521065,19.0466749 52.4560636,19.0466749 C52.131057,19.0466749 52.0660557,19.1110218 52.0660557,19.2397156 C52.0660557,19.3684093 52.0660557,19.4327562 52.131057,19.4327562 L52.326061,19.3040624 L52.4560636,19.2397156 L52.4560636,19.3684093 L52.3910623,19.5614499 C52.326061,19.5614499 52.1960584,19.9475312 52.0660557,20.3979593 L51.7410491,21.4275093 C51.6760478,21.556203 51.5460452,22.1996718 51.5460452,22.4570593 L51.2860399,24.0657312 L51.4160425,24.7735468 L51.2860399,25.2239749 C51.1560373,25.6100562 51.1560373,25.5457093 51.1560373,25.674403 C51.1560373,25.7387499 50.9610333,25.8030968 50.7660294,25.8030968 C50.2460188,25.8030968 49.7910096,26.0604843 49.7910096,26.189178 L49.7910096,26.3178718 C49.7910096,26.3822186 49.7910096,26.4465655 49.7260083,26.4465655 L49.7260083,26.4465655 Z M53.1710781,6.1129531 C53.1710781,6.1129531 53.2360795,5.98425935 53.3660821,5.91991248 L53.561086,5.66252498 C53.561086,5.72687185 53.4960847,5.79121873 53.4310834,5.8555656 C53.3660821,5.98425935 53.2360795,6.04860623 53.1710781,6.1129531 Z M54.0160953,15.0571687 L54.0810966,14.9928218 L54.0160953,14.9284749 C54.0160953,14.8641281 54.0160953,14.7997812 54.0810966,14.7354343 C54.1460979,14.6710874 54.2110992,14.6067406 54.2110992,14.5423937 C54.1460979,14.5423937 54.0810966,14.6067406 54.0160953,14.6710874 L53.8210913,14.9284749 L54.0160953,15.0571687 Z M64.0262982,18.8536343 L64.0262982,18.4675531 C64.0262982,18.2101656 64.0262982,18.0814718 63.9612969,18.0814718 L63.8962956,18.4675531 C63.8962956,18.7249406 63.9612969,18.8536343 64.0262982,18.8536343 Z" id="Shape"></path>
                </g>
            </g>
            <g id="Wallet" transform="translate(77.000000, 32.000000)" fill="#000000">
                <polygon id="Path" points="16.0616883 0.666666667 12.5730205 12.8159026 10.811416 12.8159026 8.01357352 3.03724928 5.11210725 12.8159026 3.36777336 12.8333333 0 0.666666667 1.67525136 0.666666667 4.30038752 10.9682426 7.20185379 0.666666667 8.96345832 0.666666667 11.7267595 10.9333811 14.3691663 0.666666667"></polygon>
                <path d="M16.724026,8.04858657 C16.724026,7.07567727 16.9197888,6.22148606 17.3113146,5.48601296 C17.7028403,4.75053985 18.2411882,4.18011386 18.9263583,3.77473498 C19.6115283,3.36935611 20.3744277,3.16666667 21.2150565,3.16666667 C22.0441699,3.16666667 22.7638863,3.3461916 23.3742058,3.70524146 C23.9845254,4.06429132 24.4393862,4.51599921 24.7387882,5.06036514 L24.7387882,3.32302709 L26.3279221,3.32302709 L26.3279221,12.8436396 L24.7387882,12.8436396 L24.7387882,11.0715548 C24.4278707,11.6275029 23.9643733,12.0878975 23.348296,12.4527385 C22.7322188,12.8175795 22.0153812,13 21.1977833,13 C20.3571545,13 19.597134,12.7915194 18.9177217,12.3745583 C18.2383094,11.9575972 17.7028403,11.3726934 17.3113146,10.6198469 C16.9197888,9.86700039 16.724026,9.00991362 16.724026,8.04858657 Z M24.7387882,8.06595995 C24.7387882,7.34786023 24.5948449,6.72241853 24.3069583,6.18963486 C24.0190718,5.6568512 23.6304249,5.24857676 23.1410177,4.96481154 C22.6516105,4.68104633 22.1132626,4.53916372 21.525974,4.53916372 C20.9386854,4.53916372 20.4032164,4.67815077 19.9195669,4.95612485 C19.4359175,5.23409894 19.0501495,5.63947782 18.7622629,6.17226148 C18.4743763,6.70504515 18.3304331,7.33048685 18.3304331,8.04858657 C18.3304331,8.77826855 18.4743763,9.41239694 18.7622629,9.95097173 C19.0501495,10.4895465 19.4359175,10.9007165 19.9195669,11.1844817 C20.4032164,11.468247 20.9386854,11.6101296 21.525974,11.6101296 C22.1132626,11.6101296 22.6516105,11.468247 23.1410177,11.1844817 C23.6304249,10.9007165 24.0190718,10.4895465 24.3069583,9.95097173 C24.5948449,9.41239694 24.7387882,8.78405968 24.7387882,8.06595995 Z" id="Shape"></path>
                <polygon id="Path" points="30.1363636 0 30.1363636 12.8333333 28.6461039 12.8333333 28.6461039 0"></polygon>
                <polygon id="Path" points="33.9448052 0 33.9448052 12.8333333 32.4545455 12.8333333 32.4545455 0"></polygon>
                <path d="M45.038961,7.71849234 C45.038961,8.01963094 45.0215964,8.33814291 44.9868671,8.67402827 L37.3811469,8.67402827 C37.4390291,9.61219081 37.7602753,10.3447684 38.3448855,10.8717609 C38.9294956,11.3987534 39.6385525,11.6622497 40.472056,11.6622497 C41.1550659,11.6622497 41.7252055,11.5029937 42.1824748,11.1844817 C42.6397442,10.8659698 42.9609903,10.4403219 43.1462133,9.90753828 L44.8479498,9.90753828 C44.5932682,10.8225363 44.0839049,11.5666961 43.3198599,12.1400177 C42.555815,12.7133392 41.606547,13 40.472056,13 C39.5690938,13 38.7616372,12.7973106 38.0496863,12.3919317 C37.3377353,11.9865528 36.7791721,11.4103357 36.3739968,10.6632803 C35.9688214,9.91622497 35.7662338,9.05045151 35.7662338,8.06595995 C35.7662338,7.08146839 35.9630332,6.2185905 36.3566321,5.47732627 C36.750231,4.73606203 37.303006,4.16563604 38.014957,3.76604829 C38.7269079,3.36646054 39.545941,3.16666667 40.472056,3.16666667 C41.3750182,3.16666667 42.1737925,3.36356498 42.8683788,3.7573616 C43.5629651,4.15115823 44.0983754,4.69262858 44.4746097,5.38177267 C44.8508439,6.07091676 45.038961,6.84982332 45.038961,7.71849234 Z M43.4066832,7.38839812 C43.4066832,6.78612093 43.2735542,6.26781508 43.0072961,5.83348057 C42.741038,5.39914605 42.3792743,5.06905183 41.922005,4.84319788 C41.4647356,4.61734393 40.9582665,4.50441696 40.4025974,4.50441696 C39.6038231,4.50441696 38.9237074,4.75922654 38.3622501,5.2688457 C37.8007928,5.77846486 37.4795467,6.48498233 37.3985116,7.38839812 L43.4066832,7.38839812 Z" id="Shape"></path>
                <path d="M48.5156909,4.67419825 L48.5156909,10.2458698 C48.5156909,10.7058633 48.6141367,11.0307337 48.8110283,11.220481 C49.0079199,11.4102284 49.3495848,11.505102 49.836023,11.505102 L51,11.505102 L51,12.8333333 L49.5754311,12.8333333 C48.6952097,12.8333333 48.0350436,12.6320862 47.5949329,12.2295918 C47.1548222,11.8270975 46.9347669,11.1658568 46.9347669,10.2458698 L46.9347669,4.67419825 L45.7012987,4.67419825 L45.7012987,3.38046647 L46.9347669,3.38046647 L46.9347669,1 L48.5156909,1 L48.5156909,3.38046647 L51,3.38046647 L51,4.67419825 L48.5156909,4.67419825 Z" id="Path"></path>
            </g>
        </g>
    </g>
</svg>