<?xml version="1.0" encoding="UTF-8"?>
<svg width="1920px" height="1084px" viewBox="0 0 1920 1084" version="1.1" xmlns="http://www.w3.org/2000/svg" xmlns:xlink="http://www.w3.org/1999/xlink">
    <title>Artboard</title>
    <defs>
        <path d="M633.140995,759.831734 C638.859704,759.147754 651.409163,754.704395 654.506273,750.809227 C661.065302,742.573801 662.995021,725.677974 666.243086,715.335284 C669.72765,704.23066 668.6458,687.800041 673.058741,677.904956 C675.11174,673.308205 682.395357,671.485096 684.981734,666.981386 C687.595785,662.424869 686.347884,655.263191 687.90776,650.110706 C691.694235,637.625548 695.727271,630.096734 695.274403,617.02818 C694.849211,604.754251 698.07715,588.693284 683.109882,596.430813 C668.592965,603.93951 666.763884,624.994541 658.745615,636.217353 C653.829488,643.094877 651.202857,641.958262 647.54721,640.821648 C645.079083,640.05217 642.142992,639.285206 637.719987,640.985099 C633.380008,642.654816 622.800522,649.487077 620.885899,653.578386 C616.598755,662.724111 626.493907,675.654359 616.649073,685.484063 C612.168202,689.952568 615.557159,701.8317 614.140691,713.041938 C612.442438,726.472599 606.967774,739.863025 614.860247,750.696069 C621.134976,759.311205 625.807059,760.706827 633.140995,759.831734 M131.323649,29.4889601 C138.622362,27.3992992 131.628076,17.4690093 137.706563,16.6316361 C143.855496,15.7842044 165.16794,26.355726 171.392351,27.6557919 C192.780272,32.121782 179.735175,18.0926385 197.54796,9.15562903 C224.921279,-4.57427297 273.627169,-1.20466332 301.699916,8.39872418 C306.429865,30.1955723 282.860632,22.4555286 303.768011,48.0318717 C310.576118,56.365369 350.818419,79.4622829 359.870735,77.1915683 C379.605691,72.2377392 376.264535,61.505281 399.846348,57.0946129 C421.181435,53.1064032 414.760781,66.0517394 432.543375,71.8203099 C450.167465,77.5411024 462.593644,73.9351172 472.793224,70.3291319 C484.172776,66.3082321 492.779773,62.2848176 502.742856,71.2092539 C516.545248,83.5762242 510.803895,107.814782 525.932183,118.310865 C547.868577,133.531945 552.364544,155.429378 556.367389,179.094599 C559.786538,199.322316 576.791709,219.037047 586.503199,236.958844 C594.476182,251.671968 606.957711,264.285372 617.34347,277.773869 C623.09237,285.242332 634.195169,306.599119 643.370766,309.707207 C662.1547,316.071746 678.759839,315.033202 691.993631,302.978046 C705.227423,290.920376 711.343649,325.056534 706.165865,339.832523 C698.296035,362.273118 686.632184,377.257822 672.668772,395.672487 C666.381463,403.965751 647.028929,410.782923 643.360703,419.289931 C636.992884,434.038259 623.301192,444.388493 615.753402,458.596176 C607.325036,474.478604 599.759635,480.227058 592.201781,497.205867 C583.80109,516.073166 589.839322,537.012524 594.000671,558.671068 C597.653801,577.69176 599.145748,599.292466 588.510911,620.70709 C582.029875,633.750497 571.717078,648.214672 562.949062,659.812164 C554.342065,671.190883 541.888211,677.220976 533.892586,687.26191 C526.354859,696.724478 531.854682,699.990987 530.571558,709.760341 C529.288434,719.509577 521.408541,725.22534 519.77067,732.907547 C517.398148,744.017201 523.255233,747.072481 516.477318,757.291954 C513.259443,762.150227 507.7722,762.934793 504.944294,767.941429 C501.995624,773.151751 504.330407,781.324312 500.438264,786.491885 C495.381244,793.200928 480.537257,799.500087 472.222108,804.619882 C461.904279,810.974362 452.139954,814.927367 444.000921,824.382391 C438.40046,830.885234 436.131091,837.229656 428.789607,842.351966 C411.379371,854.497648 401.061542,858.206734 381.117765,848.364456 C362.618131,839.243878 344.903467,823.826657 343.099545,803.12116 C341.40884,783.70567 344.342415,764.232344 341.610115,744.821883 C338.877815,725.383762 330.618016,709.632094 323.256405,691.564449 C315.517404,672.566388 297.23414,655.778691 299.226757,635.666648 C300.731283,620.485802 310.550958,606.640227 312.742333,591.705815 C314.002814,583.120855 312.614021,573.223255 313.819151,565.133677 C316.984191,543.917709 329.679574,523.254961 314.526128,504.183977 C297.576307,482.852336 282.498338,470.000041 285.542613,439.417062 C287.691218,417.871677 287.062235,410.478653 271.601845,391.201468 C255.52002,371.149776 239.096029,370.928488 217.745846,372.510193 C210.744013,373.025693 204.245365,372.716393 197.809616,372.407093 C188.966122,371.98212 180.240877,371.554632 170.481584,373.274642 C159.33853,375.241086 148.220635,376.674427 137.03481,374.793481 C130.438041,373.682012 122.407192,367.156537 115.483353,369.907547 C110.262798,371.979605 109.807415,382.3575 103.555328,384.877163 C95.9295444,387.950046 55.9816069,366.585715 47.5331138,364.18424 C17.2564114,355.576647 0.336781774,326.494904 0.296526893,297.189359 C0.283947243,288.015974 -1.36147102,275.317072 3.2351332,266.905621 C6.5913839,260.754826 13.7190138,259.706223 16.7859325,254.88567 C25.4180885,241.321734 11.1905041,216.939842 14.2825821,201.298818 C17.4828451,185.114633 16.4513138,167.859214 23.2594206,152.706029 C30.6361275,136.270381 43.5000779,126.772608 52.4316296,111.581704 C61.4487229,96.242436 75.5530269,99.16947 86.1652199,85.2660583 C92.3040892,77.2267732 91.4989916,67.2185296 94.3218651,57.753447 C98.3171621,44.3378742 120.658621,32.5316673 131.323649,29.4889601" id="path-1"></path>
    </defs>
    <g id="Artboard" stroke="none" stroke-width="1" fill="none" fill-rule="evenodd">
        <rect fill="#F6F7F8" x="0" y="0" width="1920" height="1084"></rect>
        <rect id="Rectangle" fill="#F6F7F8" x="0" y="0" width="1920" height="1084"></rect>
        <g id="Group-43" transform="translate(554.000000, 115.000000)">
            <mask id="mask-2" fill="white">
                <use xlink:href="#path-1"></use>
            </mask>
            <g id="Clip-5"></g>
            <path d="M85.2796125,86.3775266 C85.5764922,86.0204485 85.873372,85.6482827 86.1652199,85.2660583 C91.305265,78.5318683 91.5769854,70.4196588 93.1871807,62.4004907 L172.484264,27.8720504 C174.791372,28.3095967 176.668256,28.5107674 178.205489,28.5107674 C184.014772,28.5107674 185.003532,25.64157 186.435096,21.7992091 L235.790096,0.309146387 C239.221825,0.10043176 242.701356,-0.000153602776 246.190951,-0.000153602776 C265.412657,-0.000153602776 285.011752,3.03500971 299.63937,7.71725834 L226.405677,39.6028183 L85.2796125,86.3775266" id="Fill-4" fill="#F0F2F4" mask="url(#mask-2)"></path>
            <path d="M260.813537,380.599771 C251.50208,373.722247 241.752851,371.919254 230.738109,371.919254 C226.599404,371.919254 222.284584,372.173232 217.745846,372.510193 C215.028642,372.708849 212.389431,372.786803 209.800539,372.786803 C205.712153,372.786803 201.749563,372.595691 197.809616,372.407093 C193.872186,372.215981 189.954883,372.027383 185.962102,372.027383 C180.988108,372.027383 175.89335,372.321595 170.481584,373.274642 C166.31772,374.008915 162.158887,374.670264 157.997539,375.110325 L569.538283,209.649918 C571.211376,212.38081 572.942336,215.091586 574.673296,217.772186 L260.813537,380.599771" id="Fill-6" fill="#F0F2F4" mask="url(#mask-2)"></path>
            <path d="M345.625539,814.029642 C344.307192,810.57705 343.431648,806.938374 343.099545,803.12116 C342.825309,799.962779 342.671837,796.804399 342.596359,793.643504 L529.83439,696.505705 C529.683435,700.408417 531.338917,703.923875 530.571558,709.760341 C529.288434,719.509577 521.408541,725.22534 519.77067,732.907547 C518.105125,740.710457 520.497774,744.540244 519.720352,749.670098 L345.625539,814.029642 M614.163334,712.863399 C615.521936,701.708482 612.193361,689.929936 616.649073,685.484063 C626.493907,675.654359 616.598755,662.724111 620.885899,653.578386 C622.800522,649.487077 633.380008,642.654816 637.719987,640.985099 C639.674865,640.233223 641.342927,639.964158 642.804682,639.964158 C644.648859,639.964158 646.170996,640.391645 647.54721,640.821648 C648.923424,641.249136 650.153714,641.676623 651.416711,641.676623 C653.504933,641.676623 655.681212,640.504804 658.745615,636.217353 C660.391033,633.916463 661.774795,631.200658 663.060435,628.273624 L695.231633,614.267112 C695.231633,615.200041 695.244212,616.125427 695.274403,617.02818 C695.727271,630.096734 691.694235,637.625548 687.90776,650.110706 C686.347884,655.263191 687.595785,662.424869 684.981734,666.981386 C682.395357,671.485096 675.11174,673.308205 673.058741,677.904956 C672.339185,679.521866 671.763037,681.312286 671.292558,683.225922 L614.163334,712.863399" id="Fill-7" fill="#F0F2F4" mask="url(#mask-2)"></path>
            <path d="M285.643251,438.39612 C287.286153,421.545557 287.032044,413.458494 278.752118,400.870236 L589.124798,241.477641 C597.044946,254.29976 608.037045,265.683509 617.34347,277.773869 C618.458027,279.222298 619.776374,281.193772 621.240645,283.454428 L459.315387,366.613376 L285.643251,438.39612" id="Fill-8" fill="#F0F2F4" mask="url(#mask-2)"></path>
            <path d="M401.1496,853.999751 C395.521464,853.999751 389.458073,852.367753 382.071302,848.827148 L397.081341,841.969741 L443.696493,824.736954 C438.314919,831.116581 435.997747,837.322698 428.789607,842.351966 C418.207606,849.734931 410.244687,853.999751 401.1496,853.999751 M629.739457,760.058051 C627.261266,760.058051 625.064859,759.620505 622.916255,758.48389 L657.61093,745.656742 C656.700164,747.59301 655.678696,749.338166 654.506273,750.809227 C651.409163,754.704395 638.859704,759.147754 633.140995,759.831734 C631.943412,759.975068 630.813759,760.058051 629.739457,760.058051" id="Fill-9" fill="#F0F2F4" mask="url(#mask-2)"></path>
            <path d="M1.35824938,271.65325 C1.82369644,269.968445 2.43506744,268.371652 3.2351332,266.905621 C6.5913839,260.754826 13.7190138,259.706223 16.7859325,254.88567 C25.4180885,241.321734 11.1905041,216.939842 14.2825821,201.298818 C14.4008308,200.695306 14.5140477,200.094308 14.6222327,199.490796 L321.960701,61.4197835 C335.179398,69.4163198 351.55307,77.3474756 358.414012,77.3474756 C358.962484,77.3474756 359.450575,77.2971829 359.870735,77.1915683 C379.605691,72.2377392 376.264535,61.505281 399.846348,57.0946129 C402.613871,56.5765982 404.915947,56.3452519 406.863277,56.3452519 C419.925986,56.3452519 417.067889,66.7985857 432.543375,71.8203099 C435.509657,72.7834148 438.330014,73.4824831 441.017027,73.9627782 L1.35824938,271.65325" id="Fill-10" fill="#F0F2F4" mask="url(#mask-2)"></path>
            <path d="M339.464026,733.963694 C335.730386,719.232967 329.201548,706.154355 323.256405,691.564449 C321.150572,686.394361 318.2648,681.387725 315.218009,676.43641 L594.438443,561.02728 C597.754438,579.464577 598.707976,600.172588 588.510911,620.70709 C587.486928,622.76909 586.367339,624.86378 585.172272,626.981102 L339.464026,733.963694" id="Fill-11" fill="#F0F2F4" mask="url(#mask-2)"></path>
            <path d="M294.826395,479.032607 C290.330428,472.094731 287.037076,464.767088 285.746404,455.752124 L459.315387,366.613376 L629.656432,296.206137 C634.137303,302.5405 638.975436,308.218544 643.370766,309.707207 C650.739925,312.204239 657.774466,313.562141 664.401426,313.562141 C674.66642,313.562141 683.950202,310.30569 691.993631,302.978046 C693.918317,301.225346 695.694564,300.448325 697.307275,300.448325 C698.721228,300.448325 700.0119,301.046807 701.166712,302.107983 L294.826395,479.032607" id="Fill-12" fill="#F0F2F4" mask="url(#mask-2)"></path>
            <path d="M285.746404,455.752124 C285.049491,450.868705 284.93879,445.492417 285.542613,439.417062 C285.577836,439.075071 285.610544,438.733081 285.643251,438.39612 L459.315387,366.613376 L285.746404,455.752124" id="Fill-13" fill="#F0F2F4" mask="url(#mask-2)"></path>
            <path d="M8.02797997,330.561068 C2.96089683,320.303875 0.311622474,308.764219 0.296526893,297.189359 C0.288979103,291.516344 -0.342519342,284.495486 0.263819803,277.97504 L452.590306,74.7699757 C460.417364,74.4455879 466.968846,72.3886172 472.793224,70.3291319 C479.135884,68.088593 484.615579,65.8455394 489.951867,65.8455394 C494.188693,65.8455394 498.33243,67.2587638 502.742856,71.2092539 C505.983373,74.1111416 508.144557,77.6693488 509.754753,81.5469145 L280.349734,208.113476 L8.02797997,330.561068" id="Fill-14" fill="#F0F2F4" mask="url(#mask-2)"></path>
            <path d="M0.263819803,277.97504 C0.465094207,275.787308 0.807260696,273.657413 1.35824938,271.65325 L441.017027,73.9627782 C444.36573,74.5587464 447.508127,74.8127245 450.469377,74.8127245 C451.186417,74.8127245 451.893393,74.7976367 452.590306,74.7699757 L0.263819803,277.97504" id="Fill-15" fill="#F0F2F4" mask="url(#mask-2)"></path>
            <path d="M101.610515,385.178919 C93.2249196,385.178919 70.3249242,374.039091 56.6558762,367.903383 L368.482764,195.864694 L537.040014,128.09782 C547.184244,139.519288 551.443714,153.324629 554.397416,168.186117 L154.99855,375.386934 C152.688927,375.567988 150.376787,375.673603 148.064647,375.673603 C144.393905,375.673603 140.718131,375.412081 137.03481,374.793481 C131.57021,373.873125 125.119365,369.236139 119.131451,369.236139 C117.891098,369.236139 116.670872,369.434796 115.483353,369.907547 C110.262798,371.979605 109.807415,382.3575 103.555328,384.877163 C103.044595,385.080849 102.390453,385.178919 101.610515,385.178919 M22.668177,350.278313 C18.9471164,346.858411 15.6688596,343.013535 12.845986,338.849301 L125.428824,293.585888 L22.668177,350.278313" id="Fill-16" fill="#F0F2F4" mask="url(#mask-2)"></path>
            <path d="M154.99855,375.386934 L554.397416,168.186117 C555.106908,171.766956 555.743438,175.408146 556.367389,179.094599 C558.120992,189.472494 563.452248,199.714599 569.538283,209.649918 L157.997539,375.110325 C156.998715,375.215939 155.999891,375.308981 154.99855,375.386934" id="Fill-17" fill="#F0F2F4" mask="url(#mask-2)"></path>
            <path d="M22.8392602,153.664105 C22.9751205,153.344746 23.1160125,153.022873 23.2594206,152.706029 C29.753036,138.23934 40.4985733,129.146423 49.070347,116.817172 L226.405677,39.6028183 L302.336447,14.4363606 C301.911254,28.9231674 285.08723,25.1813919 303.768011,48.0318717 C305.549289,50.2145741 309.620064,53.4031301 314.823007,56.8858982 L22.8392602,153.664105" id="Fill-18" fill="#F0F2F4" mask="url(#mask-2)"></path>
            <path d="M49.070347,116.817172 C50.2352227,115.139911 51.3623593,113.399784 52.4316296,111.581704 C61.1996459,96.6648945 74.7806363,99.0236213 85.2796125,86.3775266 L226.405677,39.6028183 L49.070347,116.817172" id="Fill-19" fill="#F0F2F4" mask="url(#mask-2)"></path>
            <path d="M314.440586,480.196882 L707.348352,317.796785 C708.173577,323.406934 708.231443,329.489833 707.431378,334.589511 L559.786538,398.876131 L314.440586,480.196882" id="Fill-20" fill="#F0F2F4" mask="url(#mask-2)"></path>
            <path d="M299.20663,485.246267 C297.651785,483.186782 296.182482,481.127297 294.826395,479.032607 L701.166712,302.107983 C704.236146,304.929402 706.352044,311.017332 707.348352,317.796785 L314.440586,480.196882 L299.20663,485.246267" id="Fill-21" fill="#F0F2F4" mask="url(#mask-2)"></path>
            <path d="M342.830341,767.705053 C342.847952,765.112466 342.837889,762.517363 342.772475,759.924776 L545.697329,676.049156 C543.030444,678.209227 540.431488,680.374327 538.041354,682.710422 L342.830341,767.705053" id="Fill-22" fill="#F0F2F4" mask="url(#mask-2)"></path>
            <path d="M663.060435,628.273624 C663.191263,627.979412 663.319576,627.68017 663.447888,627.380929 L695.231633,614.24448 C695.231633,614.252024 695.231633,614.259568 695.231633,614.267112 L663.060435,628.273624" id="Fill-23" fill="#F0F2F4" mask="url(#mask-2)"></path>
            <path d="M342.772475,759.924776 C342.646678,754.887964 342.319607,749.853666 341.610115,744.821883 C341.084285,741.080108 340.354666,737.474123 339.464026,733.963694 L585.172272,626.981102 C578.809485,638.251692 570.330801,650.04784 562.949062,659.812164 C557.952425,666.415593 551.660084,671.218544 545.697329,676.049156 L342.772475,759.924776 M663.551041,627.137009 C668.291054,615.974549 671.951732,602.201898 683.109882,596.430813 C685.829602,595.025132 687.945499,594.404018 689.595949,594.404018 C695.505869,594.404018 695.385104,602.370378 695.26434,610.683759 L663.551041,627.137009" id="Fill-24" fill="#F0F2F4" mask="url(#mask-2)"></path>
            <path d="M663.447888,627.380929 C663.483111,627.30046 663.518334,627.217478 663.551041,627.137009 L695.26434,610.683759 C695.249244,611.870666 695.231633,613.065117 695.231633,614.24448 L663.447888,627.380929" id="Fill-25" fill="#F0F2F4" mask="url(#mask-2)"></path>
            <path d="M307.841302,608.320003 C307.911748,608.143978 307.979678,607.967954 308.047608,607.791929 L319.83474,603.886703 L307.841302,608.320003 M314.991575,558.899899 C315.411735,557.011409 315.877182,555.127948 316.362757,553.252031 L546.437013,449.893027 L644.432489,417.411499 C643.994717,418.030099 643.634939,418.656243 643.360703,419.289931 C636.992884,434.038259 623.301192,444.388493 615.753402,458.596176 C615.620058,458.850154 615.486713,459.099102 615.353369,459.345537 L314.991575,558.899899" id="Fill-26" fill="#F0F2F4" mask="url(#mask-2)"></path>
            <path d="M321.799682,524.348827 C321.656274,517.856042 319.940409,511.491503 315.373996,505.295445 L559.786538,398.876131 L701.232126,351.993294 C694.378732,366.764254 685.613232,378.598122 675.5319,391.898022 L546.437013,449.893027 L321.799682,524.348827" id="Fill-27" fill="#F0F2F4" mask="url(#mask-2)"></path>
            <path d="M315.373996,505.295445 C315.102276,504.923279 314.817976,504.553628 314.526128,504.183977 C309.328216,497.640899 304.30642,491.897475 299.928702,486.194284 L314.440586,480.196882 L559.786538,398.876131 L315.373996,505.295445" id="Fill-28" fill="#F0F2F4" mask="url(#mask-2)"></path>
            <path d="M299.928702,486.194284 C299.684656,485.877441 299.445643,485.563111 299.20663,485.246267 L314.440586,480.196882 L299.928702,486.194284" id="Fill-29" fill="#F0F2F4" mask="url(#mask-2)"></path>
            <path d="M546.437013,449.893027 L675.5319,391.898022 C674.588426,393.140251 673.634889,394.397568 672.668772,395.672487 C666.851942,403.347151 649.844254,409.756953 644.432489,417.411499 L546.437013,449.893027" id="Fill-30" fill="#F0F2F4" mask="url(#mask-2)"></path>
            <path d="M569.21876,511.690159 L590.314833,502.215018 C590.118591,502.838647 589.937444,503.464791 589.771392,504.09345 L569.21876,511.690159" id="Fill-31" fill="#F0F2F4" mask="url(#mask-2)"></path>
            <path d="M308.047608,607.791929 C310.113186,602.49611 311.939752,597.17263 312.742333,591.705815 C314.002814,583.120855 312.614021,573.223255 313.819151,565.133677 C314.131127,563.05156 314.533676,560.971958 314.991575,558.899899 L615.353369,459.345537 C607.086023,474.664687 599.63887,480.496124 592.201781,497.205867 C591.464613,498.860496 590.838147,500.527699 590.314833,502.215018 L569.21876,511.690159 L319.83474,603.886703 L308.047608,607.791929" id="Fill-32" fill="#F0F2F4" mask="url(#mask-2)"></path>
            <path d="M303.730272,656.802147 C300.507365,650.022694 298.492105,643.069731 299.226757,635.666648 C299.319846,634.711087 299.448159,633.760555 299.604147,632.812538 L488.261162,548.061826 L588.083203,514.976786 C587.451705,526.247376 589.826743,538.043524 592.289838,550.126341 L303.730272,656.802147" id="Fill-33" fill="#F0F2F4" mask="url(#mask-2)"></path>
            <path d="M299.604147,632.812538 C300.995456,624.421204 304.668714,616.397007 307.841302,608.320003 L319.83474,603.886703 L488.261162,548.061826 L299.604147,632.812538" id="Fill-34" fill="#F0F2F4" mask="url(#mask-2)"></path>
            <path d="M488.261162,548.061826 L569.21876,511.690159 L589.771392,504.09345 C588.817855,507.659201 588.289509,511.290332 588.083203,514.976786 L488.261162,548.061826" id="Fill-35" fill="#F0F2F4" mask="url(#mask-2)"></path>
            <polyline id="Fill-36" fill="#F0F2F4" mask="url(#mask-2)" points="319.83474 603.886703 569.21876 511.690159 488.261162 548.061826 319.83474 603.886703"></polyline>
            <path d="M380.549164,848.082817 C376.23686,845.922746 371.977391,843.4232 367.956934,840.594237 L504.078814,769.975768 C502.473651,775.105622 503.854897,781.955485 500.438264,786.491885 C495.381244,793.200928 480.537257,799.500087 472.222108,804.619882 C465.187568,808.950081 458.412168,812.166298 452.233044,816.770593 L397.081341,841.969741 L380.549164,848.082817 M611.602117,743.95182 C609.141538,735.065103 612.374508,725.006567 613.891614,714.857504 L669.506248,694.295341 C668.688571,701.607897 668.147646,709.267472 666.243086,715.335284 C665.835506,716.637865 665.448053,718.043545 665.068147,719.52215 L611.602117,743.95182" id="Fill-37" fill="#F0F2F4" mask="url(#mask-2)"></path>
            <path d="M367.956934,840.594237 C358.107068,833.656361 349.718957,824.739469 345.625539,814.029642 L519.720352,749.670098 C519.393281,751.842742 518.495094,754.249247 516.477318,757.291954 C513.259443,762.150227 507.7722,762.934793 504.944294,767.941429 C504.584516,768.577632 504.302732,769.259097 504.078814,769.975768 L367.956934,840.594237" id="Fill-38" fill="#F0F2F4" mask="url(#mask-2)"></path>
            <path d="M397.081341,841.969741 L452.233044,816.770593 C449.347272,818.920606 446.589813,821.372374 444.000921,824.382391 C443.897767,824.500579 443.79713,824.618766 443.696493,824.736954 L397.081341,841.969741 M622.916255,758.48389 C620.29214,757.093298 617.746019,754.659132 614.860247,750.696069 C613.290307,748.543542 612.248711,746.287915 611.602117,743.95182 L665.068147,719.52215 C662.974893,727.697226 661.155876,738.115354 657.61093,745.656742 L622.916255,758.48389" id="Fill-39" fill="#F0F2F4" mask="url(#mask-2)"></path>
            <path d="M125.428824,293.585888 L280.349734,208.113476 L515.662156,102.305219 C516.749038,105.881028 518.090029,109.26824 520.05497,112.240538 L368.482764,195.864694 L125.428824,293.585888" id="Fill-40" fill="#F0F2F4" mask="url(#mask-2)"></path>
            <path d="M280.349734,208.113476 L509.754753,81.5469145 C512.464409,88.0799338 513.60161,95.5257653 515.662156,102.305219 L280.349734,208.113476" id="Fill-41" fill="#F0F2F4" mask="url(#mask-2)"></path>
            <path d="M56.6558762,367.903383 C52.5901332,366.080274 49.3395516,364.697225 47.5331138,364.18424 C37.8367193,361.428201 29.5089908,356.569928 22.668177,350.278313 L125.428824,293.585888 L368.482764,195.864694 L56.6558762,367.903383" id="Fill-42" fill="#F0F2F4" mask="url(#mask-2)"></path>
        </g>
        <g id="lock-2" transform="translate(908.000000, 469.000000)" fill="#2D3A48" fill-rule="nonzero">
            <path d="M82.8985507,52.6804124 L82.8985507,30.8556701 C82.8985507,13.8417031 69.0376116,0 52,0 C34.9623884,0 21.1014493,13.8417031 21.1014493,30.8556701 L21.1014493,52.6804124 L0,52.6804124 L0,146 L104,146 L104,52.6804124 L82.8985507,52.6804124 Z M30.1449275,30.8556701 C30.1449275,18.8213567 39.9489623,9.03092784 52,9.03092784 C64.0510377,9.03092784 73.8550725,18.8213567 73.8550725,30.8556701 L73.8550725,52.6804124 L30.1449275,52.6804124 L30.1449275,30.8556701 Z M94.9565217,136.969072 L9.04347826,136.969072 L9.04347826,61.7113402 L94.9565217,61.7113402 L94.9565217,136.969072 Z" id="Shape"></path>
            <path d="M47,101.954337 L47,118 L56,118 L56,101.954038 C59.5442,100.268236 62,96.6576029 62,92.4838374 C62,86.7030495 57.2897,82 51.5,82 C45.7103,82 41,86.7030495 41,92.4838374 C41,96.6579024 43.4558,100.268836 47,101.954337 Z" id="Path"></path>
        </g>
    </g>
</svg>