<?xml version="1.0" encoding="UTF-8"?>
<svg width="30px" height="30px" viewBox="0 0 30 30" version="1.1" xmlns="http://www.w3.org/2000/svg" xmlns:xlink="http://www.w3.org/1999/xlink">
    <title>Artboard</title>
    <g id="Artboard" stroke="none" stroke-width="1" fill="none" fill-rule="evenodd">
        <g id="SvgjsG19083" transform="translate(7.000000, 5.000000)" fill="#28A0F0" fill-rule="nonzero">
            <path d="M8,0 C4.7984,0 2.4,2.3984 2.4,5.6 L2.4,7.2 L4.8,7.2 L4.8,5.6 C4.8,3.6016 6.4,2.4 8,2.4 C9.6,2.4 11.2,3.6016 11.2,5.6 L11.2,7.2 L13.6,7.2 L13.6,5.6 C13.6,2.3984 11.2016,0 8,0 Z M15.2,7.2 L0.8,7.2 C0,7.2 0,7.2 0,8 L0,19.2 C0,20 0,20 0.8,20 L15.2,20 C16,20 16,20 16,19.2 L16,8 C16,7.2 16,7.2 15.2,7.2 Z" id="Shape"></path>
        </g>
    </g>
</svg>